<?xml version="1.0" encoding="UTF-8"?>
<!-- Generator: CustomSymbols v2.7.2.48 by @serious_bret https://bretlester.com/app_content/CustomSymbols/ -->
<!-- Guides: Left/Right 0.035/-0.017 Cap/Base -0.104/-0.12 -->
<!-- Settings: RefScale 1.0 Min/Max Stroke Scales 0.5/2.21 -->
<!DOCTYPE svg
PUBLIC "-//W3C//DTD SVG 1.1//EN"
       "http://www.w3.org/Graphics/SVG/1.1/DTD/svg11.dtd">
<svg version="1.1" xmlns="http://www.w3.org/2000/svg" xmlns:xlink="http://www.w3.org/1999/xlink" width="3300" height="2200">
<![CDATA[<?xml version="1.0" encoding="UTF-8"?>
<!-- Generated by Pixelmator Pro 3.6.14 -->
<svg width="112" height="58" viewBox="0 0 112 58" xmlns="http://www.w3.org/2000/svg">
    <g id="Group">
        <path id="Oval" fill="#000000" fill-rule="evenodd" stroke="none" d="M 112 15.5 C 112 9.148727 106.851273 4 100.5 4 C 94.148727 4 89 9.148727 89 15.5 C 89 21.851273 94.148727 27 100.5 27 C 106.851273 27 112 21.851273 112 15.5 Z"/>
        <path id="Path" fill="none" stroke="#000000" stroke-width="10" stroke-linecap="round" stroke-linejoin="round" d="M 80.000175 21 L 80.999969 46"/>
        <path id="path1" fill="none" stroke="#000000" stroke-width="20" stroke-linecap="round" stroke-linejoin="round" d="M 75 21.000088 L 51.999977 27.999931"/>
        <path id="path2" fill="none" stroke="#000000" stroke-width="10" stroke-linecap="round" stroke-linejoin="round" d="M 58.999947 29.999838 L 11.000031 46.000103"/>
    </g>
</svg>
]]>
 <g id="Notes">
  <rect height="2200" id="artboard" style="fill:white;opacity:1" width="3300" x="0" y="0"/>
  <line id="" style="fill:none;stroke:black;opacity:1;stroke-width:0.5;" x1="263" x2="3036" y1="292" y2="292"/>
  <text id="reftext1" style="stroke:none;fill:black;font-family:-apple-system,&quot;SF Pro Display&quot;,&quot;SF Pro Text&quot;,Helvetica,sans-serif;font-weight:bold;" transform="matrix(1 0 0 1 263 322)">Weight/Scale Variations</text>
  <text id="reftext2" style="stroke:none;fill:black;font-family:-apple-system,&quot;SF Pro Display&quot;,&quot;SF Pro Text&quot;,Helvetica,sans-serif;text-anchor:middle;" transform="matrix(1 0 0 1 559.711 322)">Ultralight</text>
  <text style="stroke:none;fill:black;font-family:-apple-system,&quot;SF Pro Display&quot;,&quot;SF Pro Text&quot;,Helvetica,sans-serif;text-anchor:middle;" transform="matrix(1 0 0 1 856.422 322)">Thin</text>
  <text style="stroke:none;fill:black;font-family:-apple-system,&quot;SF Pro Display&quot;,&quot;SF Pro Text&quot;,Helvetica,sans-serif;text-anchor:middle;" transform="matrix(1 0 0 1 1153.13 322)">Light</text>
  <text style="stroke:none;fill:black;font-family:-apple-system,&quot;SF Pro Display&quot;,&quot;SF Pro Text&quot;,Helvetica,sans-serif;text-anchor:middle;" transform="matrix(1 0 0 1 1449.84 322)">Regular</text>
  <text style="stroke:none;fill:black;font-family:-apple-system,&quot;SF Pro Display&quot;,&quot;SF Pro Text&quot;,Helvetica,sans-serif;text-anchor:middle;" transform="matrix(1 0 0 1 1746.56 322)">Medium</text>
  <text style="stroke:none;fill:black;font-family:-apple-system,&quot;SF Pro Display&quot;,&quot;SF Pro Text&quot;,Helvetica,sans-serif;text-anchor:middle;" transform="matrix(1 0 0 1 2043.27 322)">Semibold</text>
  <text style="stroke:none;fill:black;font-family:-apple-system,&quot;SF Pro Display&quot;,&quot;SF Pro Text&quot;,Helvetica,sans-serif;text-anchor:middle;" transform="matrix(1 0 0 1 2339.98 322)">Bold</text>
  <text style="stroke:none;fill:black;font-family:-apple-system,&quot;SF Pro Display&quot;,&quot;SF Pro Text&quot;,Helvetica,sans-serif;text-anchor:middle;" transform="matrix(1 0 0 1 2636.69 322)">Heavy</text>
  <text style="stroke:none;fill:black;font-family:-apple-system,&quot;SF Pro Display&quot;,&quot;SF Pro Text&quot;,Helvetica,sans-serif;text-anchor:middle;" transform="matrix(1 0 0 1 2933.4 322)">Black</text>
  <line id="" style="fill:none;stroke:black;opacity:1;stroke-width:0.5;" x1="263" x2="3036" y1="1903" y2="1903"/>
  <g id="" transform="matrix(1 0 0 1 263 1933)">
   <path d="M9.24805 0.830078C13.5547 0.830078 17.1387-2.74414 17.1387-7.05078C17.1387-11.3574 13.5449-14.9316 9.23828-14.9316C4.94141-14.9316 1.36719-11.3574 1.36719-7.05078C1.36719-2.74414 4.95117 0.830078 9.24805 0.830078ZM9.24805-0.654297C5.70312-0.654297 2.87109-3.49609 2.87109-7.05078C2.87109-10.6055 5.69336-13.4473 9.23828-13.4473C12.793-13.4473 15.6348-10.6055 15.6445-7.05078C15.6543-3.49609 12.8027-0.654297 9.24805-0.654297ZM6.39648-6.31836L8.50586-6.31836L8.50586-4.19922C8.50586-3.75977 8.79883-3.45703 9.22852-3.45703C9.67773-3.45703 9.9707-3.75977 9.9707-4.19922L9.9707-6.31836L12.0996-6.31836C12.5391-6.31836 12.8418-6.61133 12.8418-7.04102C12.8418-7.48047 12.5391-7.7832 12.0996-7.7832L9.9707-7.7832L9.9707-9.89258C9.9707-10.3418 9.67773-10.6445 9.22852-10.6445C8.79883-10.6445 8.50586-10.3418 8.50586-9.89258L8.50586-7.7832L6.39648-7.7832C5.94727-7.7832 5.64453-7.48047 5.64453-7.04102C5.64453-6.61133 5.94727-6.31836 6.39648-6.31836Z"/>
  </g>
  <g id="" transform="matrix(1 0 0 1 281.506 1933)">
   <path d="M11.709 2.91016C17.1582 2.91016 21.6699-1.61133 21.6699-7.05078C21.6699-12.5 17.1484-17.0117 11.6992-17.0117C6.25977-17.0117 1.74805-12.5 1.74805-7.05078C1.74805-1.61133 6.26953 2.91016 11.709 2.91016ZM11.709 1.25C7.09961 1.25 3.41797-2.44141 3.41797-7.05078C3.41797-11.6602 7.08984-15.3516 11.6992-15.3516C16.3086-15.3516 20-11.6602 20.0098-7.05078C20.0195-2.44141 16.3184 1.25 11.709 1.25ZM7.98828-6.23047L10.8789-6.23047L10.8789-3.32031C10.8789-2.83203 11.2109-2.5 11.6895-2.5C12.1777-2.5 12.5195-2.83203 12.5195-3.32031L12.5195-6.23047L15.4297-6.23047C15.918-6.23047 16.25-6.5625 16.25-7.04102C16.25-7.5293 15.918-7.87109 15.4297-7.87109L12.5195-7.87109L12.5195-10.7617C12.5195-11.2695 12.1777-11.6016 11.6895-11.6016C11.2109-11.6016 10.8789-11.2598 10.8789-10.7617L10.8789-7.87109L7.98828-7.87109C7.48047-7.87109 7.14844-7.5293 7.14844-7.04102C7.14844-6.5625 7.49023-6.23047 7.98828-6.23047Z"/>
  </g>
  <g id="" transform="matrix(1 0 0 1 304.924 1933)">
   <path d="M14.9707 5.66406C21.9336 5.66406 27.6953-0.0976562 27.6953-7.05078C27.6953-14.0137 21.9238-19.7754 14.9609-19.7754C8.00781-19.7754 2.25586-14.0137 2.25586-7.05078C2.25586-0.0976562 8.01758 5.66406 14.9707 5.66406ZM14.9707 3.84766C8.93555 3.84766 4.08203-1.01562 4.08203-7.05078C4.08203-13.0957 8.92578-17.9492 14.9609-17.9492C21.0059-17.9492 25.8594-13.0957 25.8691-7.05078C25.8789-1.01562 21.0156 3.84766 14.9707 3.84766ZM10.0586-6.14258L14.0625-6.14258L14.0625-2.12891C14.0625-1.5918 14.4336-1.2207 14.9512-1.2207C15.4883-1.2207 15.8594-1.5918 15.8594-2.12891L15.8594-6.14258L19.8828-6.14258C20.4102-6.14258 20.791-6.51367 20.791-7.03125C20.791-7.56836 20.4199-7.94922 19.8828-7.94922L15.8594-7.94922L15.8594-11.9531C15.8594-12.5098 15.4883-12.8809 14.9512-12.8809C14.4336-12.8809 14.0625-12.5 14.0625-11.9531L14.0625-7.94922L10.0586-7.94922C9.50195-7.94922 9.13086-7.56836 9.13086-7.03125C9.13086-6.51367 9.51172-6.14258 10.0586-6.14258Z"/>
  </g>
  <text style="stroke:none;fill:black;font-family:-apple-system,&quot;SF Pro Display&quot;,&quot;SF Pro Text&quot;,Helvetica,sans-serif;font-weight:bold;" transform="matrix(1 0 0 1 263 1953)">Design Variations</text>
  <text style="stroke:none;fill:black;font-family:-apple-system,&quot;SF Pro Display&quot;,&quot;SF Pro Text&quot;,Helvetica,sans-serif;" transform="matrix(1 0 0 1 263 1971)">Symbols are supported in up to nine weights and three scales.</text>
  <text style="stroke:none;fill:black;font-family:-apple-system,&quot;SF Pro Display&quot;,&quot;SF Pro Text&quot;,Helvetica,sans-serif;" transform="matrix(1 0 0 1 263 1989)">For optimal layout with text and other symbols, vertically align</text>
  <text style="stroke:none;fill:black;font-family:-apple-system,&quot;SF Pro Display&quot;,&quot;SF Pro Text&quot;,Helvetica,sans-serif;" transform="matrix(1 0 0 1 263 2007)">symbols with the adjacent text.</text>
  <line id="" style="fill:none;stroke:#00AEEF;stroke-width:0.5;opacity:1.0;" x1="776" x2="776" y1="1919" y2="1933"/>
  <g id="" transform="matrix(1 0 0 1 776 1933)">
   <path d="M3.31055 0.126953C3.82812 0.126953 4.08203-0.0683594 4.26758-0.605469L5.52734-4.0625L11.2891-4.0625L12.5488-0.605469C12.7344-0.0683594 12.9883 0.126953 13.4961 0.126953C14.0137 0.126953 14.3457-0.185547 14.3457-0.673828C14.3457-0.839844 14.3164-0.986328 14.2383-1.20117L9.6582-13.3887C9.43359-13.9941 9.0332-14.2871 8.4082-14.2871C7.80273-14.2871 7.39258-13.9941 7.17773-13.3984L2.59766-1.19141C2.51953-0.976562 2.49023-0.830078 2.49023-0.664062C2.49023-0.175781 2.80273 0.126953 3.31055 0.126953ZM6.00586-5.53711L8.37891-12.1094L8.42773-12.1094L10.8008-5.53711Z"/>
  </g>
  <line id="" style="fill:none;stroke:#00AEEF;stroke-width:0.5;opacity:1.0;" x1="792.836" x2="792.836" y1="1919" y2="1933"/>
  <text style="stroke:none;fill:black;font-family:-apple-system,&quot;SF Pro Display&quot;,&quot;SF Pro Text&quot;,Helvetica,sans-serif;font-weight:bold;" transform="matrix(1 0 0 1 776 1953)">Margins</text>
  <text style="stroke:none;fill:black;font-family:-apple-system,&quot;SF Pro Display&quot;,&quot;SF Pro Text&quot;,Helvetica,sans-serif;" transform="matrix(1 0 0 1 776 1971)">Leading and trailing margins on the left and right side of each symbol</text>
  <text style="stroke:none;fill:black;font-family:-apple-system,&quot;SF Pro Display&quot;,&quot;SF Pro Text&quot;,Helvetica,sans-serif;" transform="matrix(1 0 0 1 776 1989)">can be adjusted by modifying the x-location of the margin guidelines.</text>
  <text style="stroke:none;fill:black;font-family:-apple-system,&quot;SF Pro Display&quot;,&quot;SF Pro Text&quot;,Helvetica,sans-serif;" transform="matrix(1 0 0 1 776 2007)">Modifications are automatically applied proportionally to all</text>
  <text style="stroke:none;fill:black;font-family:-apple-system,&quot;SF Pro Display&quot;,&quot;SF Pro Text&quot;,Helvetica,sans-serif;" transform="matrix(1 0 0 1 776 2025)">scales and weights.</text>
  <g id="" transform="matrix(1 0 0 1 1289 1933)">
   <path d="M2.8418 1.86523L4.54102 3.57422C5.40039 4.44336 6.38672 4.38477 7.31445 3.35938L17.4902-7.85156C17.7539-7.76367 18.0273-7.7832 18.3398-7.8418L19.4043-8.03711L20.0684-7.36328L20.0293-6.80664C19.9902-6.30859 20.1172-5.92773 20.6055-5.44922L21.3672-4.70703C21.8457-4.22852 22.4609-4.19922 22.9297-4.66797L25.8398-7.58789C26.3086-8.05664 26.2891-8.65234 25.8105-9.13086L25.0391-9.89258C24.5605-10.3711 24.1895-10.5273 23.7109-10.4883L23.1348-10.4395L22.4902-11.0742L22.7344-12.1973C22.8613-12.7637 22.7051-13.2031 22.1191-13.7891L19.9219-15.9766C16.582-19.2969 12.1484-19.2188 9.25781-16.3281C8.83789-15.918 8.80859-15.3418 9.04297-14.9512C9.27734-14.5898 9.73633-14.3555 10.3809-14.5215C11.8457-14.8633 13.3691-14.9219 14.7949-13.9844L14.209-12.5293C14.0137-12.0508 13.9844-11.6504 14.1113-11.2891L3.04688-0.898438C2.06055 0.0195312 1.98242 0.996094 2.8418 1.86523ZM10.752-15.957C13.1836-17.7344 16.4746-17.4316 18.7012-15.2051L21.1328-12.793C21.3672-12.5586 21.4062-12.373 21.3379-12.0312L21.0156-10.5469L22.5195-9.0625L23.5059-9.12109C23.7598-9.13086 23.8379-9.11133 24.0332-8.91602L24.6094-8.33984L22.168-5.89844L21.5918-6.47461C21.3965-6.66992 21.3672-6.74805 21.377-7.01172L21.4453-7.98828L19.9512-9.47266L18.4277-9.21875C18.1055-9.15039 17.959-9.17969 17.7148-9.41406L15.7129-11.416C15.459-11.6504 15.4297-11.8164 15.5859-12.1875L16.4648-14.2773C14.9023-15.7324 12.8711-16.3574 10.8398-15.7617C10.6836-15.7227 10.625-15.8496 10.752-15.957ZM5.27344 2.30469L4.10156 1.14258C3.63281 0.683594 3.74023 0.341797 4.14062-0.0195312L14.9512-10.1953L16.416-8.71094L6.42578 2.27539C6.07422 2.67578 5.74219 2.77344 5.27344 2.30469Z"/>
  </g>
  <text style="stroke:none;fill:black;font-family:-apple-system,&quot;SF Pro Display&quot;,&quot;SF Pro Text&quot;,Helvetica,sans-serif;font-weight:bold;" transform="matrix(1 0 0 1 1289 1953)">Exporting</text>
  <text style="stroke:none;fill:black;font-family:-apple-system,&quot;SF Pro Display&quot;,&quot;SF Pro Text&quot;,Helvetica,sans-serif;" transform="matrix(1 0 0 1 1289 1971)">Symbols should be outlined when exporting to ensure the</text>
  <text style="stroke:none;fill:black;font-family:-apple-system,&quot;SF Pro Display&quot;,&quot;SF Pro Text&quot;,Helvetica,sans-serif;" transform="matrix(1 0 0 1 1289 1989)">design is preserved when submitting to Xcode.</text>
  <text id="template-version" style="stroke:none;fill:black;font-family:-apple-system,&quot;SF Pro Display&quot;,&quot;SF Pro Text&quot;,Helvetica,sans-serif;text-anchor:end;" transform="matrix(1 0 0 1 3036 1933)">Template v.2.0</text>
  <text style="stroke:none;fill:black;font-family:-apple-system,&quot;SF Pro Display&quot;,&quot;SF Pro Text&quot;,Helvetica,sans-serif;text-anchor:end;" transform="matrix(1 0 0 1 3036 1951)">Requires Xcode 12 or greater</text>
  <text style="stroke:none;fill:black;font-family:-apple-system,&quot;SF Pro Display&quot;,&quot;SF Pro Text&quot;,Helvetica,sans-serif;" transform="matrix(1 0 0 1 263 726)">Small</text>
  <text style="stroke:none;fill:black;font-family:-apple-system,&quot;SF Pro Display&quot;,&quot;SF Pro Text&quot;,Helvetica,sans-serif;" transform="matrix(1 0 0 1 263 1156)">Medium</text>
  <text style="stroke:none;fill:black;font-family:-apple-system,&quot;SF Pro Display&quot;,&quot;SF Pro Text&quot;,Helvetica,sans-serif;" transform="matrix(1 0 0 1 263 1586)">Large</text>
 </g>
 <g id="Guides">
  <g id="H-reference" style="fill:#27AAE1;stroke:none;" transform="matrix(1 0 0 1 339 696)">
   <path d="M0.976562 0L3.66211 0L12.9883-24.4629L45.752-24.4629L55.127 0L57.7637 0L30.6152-70.459L28.125-70.459ZM29.3457-67.1387L29.4434-67.1387L44.873-26.709L13.8672-26.709Z"/>
  </g>
  <line id="Baseline-S" style="fill:none;stroke:#27AAE1;opacity:1;stroke-width:0.5;" x1="263" x2="3036" y1="696" y2="696"/>
  <line id="Capline-S" style="fill:none;stroke:#27AAE1;opacity:1;stroke-width:0.5;" x1="263" x2="3036" y1="625.541" y2="625.541"/>
  <g id="H-reference" style="fill:#27AAE1;stroke:none;" transform="matrix(1 0 0 1 339 1126)">
   <path d="M0.976562 0L3.66211 0L12.9883-24.4629L45.752-24.4629L55.127 0L57.7637 0L30.6152-70.459L28.125-70.459ZM29.3457-67.1387L29.4434-67.1387L44.873-26.709L13.8672-26.709Z"/>
  </g>
  <line id="Baseline-M" style="fill:none;stroke:#27AAE1;opacity:1;stroke-width:0.5;" x1="263" x2="3036" y1="1126" y2="1126"/>
  <line id="Capline-M" style="fill:none;stroke:#27AAE1;opacity:1;stroke-width:0.5;" x1="263" x2="3036" y1="1055.54" y2="1055.54"/>
  <g id="H-reference" style="fill:#27AAE1;stroke:none;" transform="matrix(1 0 0 1 339 1556)">
   <path d="M0.976562 0L3.66211 0L12.9883-24.4629L45.752-24.4629L55.127 0L57.7637 0L30.6152-70.459L28.125-70.459ZM29.3457-67.1387L29.4434-67.1387L44.873-26.709L13.8672-26.709Z"/>
  </g>
  <line id="Baseline-L" style="fill:none;stroke:#27AAE1;opacity:1;stroke-width:0.5;" x1="263" x2="3036" y1="1556" y2="1556"/>
  <line id="Capline-L" style="fill:none;stroke:#27AAE1;opacity:1;stroke-width:0.5;" x1="263" x2="3036" y1="1485.54" y2="1485.54"/>
  <line id="left-margin" x1="1399.440305870732" x2="1399.440305870732" y1="1030.79" y2="1150.12" style="fill:none;stroke:#00AEEF;stroke-width:0.5;opacity:1.0;"/>
  <line id="right-margin" x1="1508.6000470211432" x2="1508.6000470211432" y1="1030.79" y2="1150.12" style="fill:none;stroke:#00AEEF;stroke-width:0.5;opacity:1.0;"/>
 </g>
 <g id="Symbols">
  <g id="Black-L" transform="matrix(1.0,0.0,0.0,1.0,2862.981392014241,1483.046309072457)">  <path stroke-dasharray="none" stroke-linecap="butt" stroke-opacity="1" stroke="none" fill-rule="evenodd" stroke-linejoin="miter" fill="#000000" stroke-miterlimit="4" fill-opacity="1" stroke-width="1px" d="M143.397,19.845C143.397,11.713,136.805,5.121,128.673,5.121C120.542,5.121,113.95,11.713,113.95,19.845C113.95,27.977,120.542,34.569,128.673,34.569C136.805,34.569,143.397,27.977,143.397,19.845ZM143.397,19.845"/>
  <path stroke-opacity="1" stroke-linecap="round" fill="#000000" stroke="none" stroke-linejoin="round" fill-rule="nonzero" stroke-miterlimit="4" stroke-dasharray="none" fill-opacity="1" stroke-width="10px" d="M88.29,27.452L89.571,59.461C89.883,67.268,96.465,73.344,104.272,73.032C112.08,72.719,118.155,66.137,117.843,58.33L116.563,26.322C116.251,18.514,109.669,12.438,101.861,12.751C94.054,13.063,87.978,19.645,88.29,27.452Z"/>
  <path stroke-dasharray="none" stroke-width="20px" stroke-opacity="1" fill-rule="nonzero" stroke-linejoin="round" stroke="none" stroke-linecap="round" fill="#000000" fill-opacity="1" stroke-miterlimit="4" d="M87.787,-0.182L58.339,8.78C43.389,13.33,34.958,29.138,39.508,44.088C44.058,59.038,59.866,67.469,74.816,62.919L104.263,53.957C119.213,49.407,127.644,33.599,123.094,18.649C118.544,3.699,102.737,-4.732,87.787,-0.182Z"/>
  <path fill-opacity="1" stroke-width="10px" stroke="none" stroke-miterlimit="4" stroke-linecap="round" fill="#000000" stroke-linejoin="round" stroke-opacity="1" stroke-dasharray="none" fill-rule="nonzero" d="M71.066,24.988L9.61,45.474C2.197,47.945,-1.809,55.957,0.662,63.369C3.133,70.782,11.145,74.788,18.558,72.317L80.013,51.831C87.426,49.36,91.432,41.348,88.961,33.936C86.49,26.523,78.478,22.517,71.066,24.988Z"/>
</g>
  <g id="Heavy-L" transform="matrix(1.0,0.0,0.0,1.0,2566.271392014241,1483.046309072457)">  <path fill-rule="evenodd" stroke-width="1px" stroke="none" stroke-linecap="butt" stroke-miterlimit="4" fill-opacity="1" fill="#000000" stroke-dasharray="none" stroke-linejoin="miter" stroke-opacity="1" d="M143.397,19.845C143.397,11.713,136.805,5.121,128.673,5.121C120.542,5.121,113.95,11.713,113.95,19.845C113.95,27.977,120.542,34.569,128.673,34.569C136.805,34.569,143.397,27.977,143.397,19.845ZM143.397,19.845"/>
  <path stroke-linecap="round" fill-opacity="1" stroke-dasharray="none" fill="#000000" stroke-opacity="1" stroke-miterlimit="4" stroke-width="10px" stroke-linejoin="round" fill-rule="nonzero" stroke="none" d="M89.838,27.39L91.118,59.399C91.397,66.351,97.258,71.762,104.21,71.484C111.163,71.206,116.573,65.344,116.295,58.392L115.015,26.384C114.737,19.431,108.876,14.021,101.923,14.299C94.971,14.577,89.56,20.438,89.838,27.39Z"/>
  <path stroke-opacity="1" stroke-width="20px" stroke-linejoin="round" fill="#000000" stroke-miterlimit="4" fill-opacity="1" fill-rule="nonzero" stroke="none" stroke-dasharray="none" stroke-linecap="round" d="M88.689,2.782L59.241,11.744C45.928,15.796,38.42,29.872,42.472,43.185C46.524,56.498,60.6,64.006,73.913,59.955L103.361,50.992C116.674,46.941,124.182,32.864,120.13,19.551C116.079,6.238,102.002,-1.27,88.689,2.782Z"/>
  <path stroke-miterlimit="4" stroke-dasharray="none" stroke-opacity="1" stroke-linecap="round" fill="#000000" stroke-linejoin="round" stroke-width="10px" fill-rule="nonzero" stroke="none" fill-opacity="1" d="M71.555,26.458L10.1,46.943C3.499,49.144,-0.069,56.279,2.132,62.879C4.332,69.48,11.467,73.048,18.068,70.847L79.524,50.362C86.124,48.161,89.692,41.027,87.491,34.426C85.291,27.825,78.156,24.257,71.555,26.458Z"/>
</g>
  <g id="Bold-L" transform="matrix(1.0,0.0,0.0,1.0,2269.561392014241,1483.046309072457)">  <path fill-opacity="1" stroke-opacity="1" stroke="none" stroke-miterlimit="4" stroke-linecap="butt" stroke-linejoin="miter" stroke-width="1px" stroke-dasharray="none" fill="#000000" fill-rule="evenodd" d="M143.397,19.845C143.397,11.713,136.805,5.121,128.673,5.121C120.542,5.121,113.95,11.713,113.95,19.845C113.95,27.977,120.542,34.569,128.673,34.569C136.805,34.569,143.397,27.977,143.397,19.845ZM143.397,19.845"/>
  <path stroke="none" fill-rule="nonzero" stroke-opacity="1" fill="#000000" stroke-miterlimit="4" stroke-linecap="round" stroke-linejoin="round" fill-opacity="1" stroke-width="10px" stroke-dasharray="none" d="M91.386,27.329L92.666,59.337C92.91,65.434,98.051,70.18,104.148,69.936C110.246,69.692,114.991,64.551,114.747,58.454L113.467,26.445C113.223,20.348,108.083,15.603,101.985,15.847C95.888,16.09,91.143,21.231,91.386,27.329Z"/>
  <path fill-rule="nonzero" fill-opacity="1" stroke="none" stroke-width="20px" stroke-linecap="round" stroke-miterlimit="4" stroke-opacity="1" stroke-linejoin="round" fill="#000000" stroke-dasharray="none" d="M89.591,5.746L60.143,14.708C48.467,18.262,41.883,30.607,45.436,42.283C48.99,53.959,61.335,60.544,73.011,56.99L102.459,48.028C114.135,44.475,120.72,32.129,117.166,20.453C113.613,8.777,101.267,2.192,89.591,5.746Z"/>
  <path fill="#000000" fill-opacity="1" stroke-miterlimit="4" fill-rule="nonzero" stroke-opacity="1" stroke-width="10px" stroke-linejoin="round" stroke-dasharray="none" stroke-linecap="round" stroke="none" d="M72.045,27.928L10.59,48.413C4.8,50.343,1.672,56.6,3.601,62.39C5.531,68.179,11.789,71.307,17.578,69.378L79.034,48.892C84.823,46.962,87.952,40.705,86.022,34.916C84.092,29.126,77.835,25.998,72.045,27.928Z"/>
</g>
  <g id="Semibold-L" transform="matrix(1.0,0.0,0.0,1.0,1972.851392014241,1483.046309072457)">  <path stroke="none" fill-opacity="1" stroke-linecap="butt" stroke-miterlimit="4" stroke-linejoin="miter" stroke-width="1px" fill="#000000" fill-rule="evenodd" stroke-dasharray="none" stroke-opacity="1" d="M143.397,19.845C143.397,11.713,136.805,5.121,128.673,5.121C120.542,5.121,113.95,11.713,113.95,19.845C113.95,27.977,120.542,34.569,128.673,34.569C136.805,34.569,143.397,27.977,143.397,19.845ZM143.397,19.845"/>
  <path fill-opacity="1" stroke-linecap="round" fill-rule="nonzero" stroke="none" stroke-linejoin="round" fill="#000000" stroke-dasharray="none" stroke-opacity="1" stroke-width="10px" stroke-miterlimit="4" d="M92.934,27.267L94.214,59.275C94.424,64.517,98.844,68.597,104.086,68.388C109.329,68.178,113.409,63.758,113.199,58.516L111.919,26.507C111.71,21.265,107.29,17.185,102.047,17.395C96.805,17.604,92.725,22.024,92.934,27.267Z"/>
  <path fill="#000000" fill-rule="nonzero" stroke-miterlimit="4" stroke-opacity="1" fill-opacity="1" stroke-dasharray="none" stroke-linecap="round" stroke="none" stroke-linejoin="round" stroke-width="20px" d="M90.493,8.71L61.045,17.672C51.006,20.727,45.345,31.342,48.4,41.381C51.456,51.42,62.07,57.081,72.109,54.026L101.557,45.064C111.596,42.009,117.257,31.394,114.202,21.355C111.147,11.316,100.532,5.655,90.493,8.71Z"/>
  <path stroke-linejoin="round" stroke-opacity="1" stroke-linecap="round" fill-rule="nonzero" stroke-width="10px" stroke="none" fill="#000000" fill-opacity="1" stroke-dasharray="none" stroke-miterlimit="4" d="M72.535,29.397L11.079,49.883C6.102,51.542,3.412,56.922,5.071,61.9C6.73,66.877,12.11,69.567,17.088,67.908L78.544,47.422C83.521,45.763,86.211,40.383,84.552,35.406C82.893,30.428,77.513,27.738,72.535,29.397Z"/>
</g>
  <g id="Medium-L" transform="matrix(1.0,0.0,0.0,1.0,1676.1413920142409,1483.046309072457)">  <path stroke-miterlimit="4" fill="#000000" fill-rule="evenodd" fill-opacity="1" stroke-dasharray="none" stroke-linecap="butt" stroke-width="1px" stroke="none" stroke-linejoin="miter" stroke-opacity="1" d="M143.397,19.845C143.397,11.713,136.805,5.121,128.673,5.121C120.542,5.121,113.95,11.713,113.95,19.845C113.95,27.977,120.542,34.569,128.673,34.569C136.805,34.569,143.397,27.977,143.397,19.845ZM143.397,19.845"/>
  <path fill="#000000" fill-rule="nonzero" fill-opacity="1" stroke-opacity="1" stroke-miterlimit="4" stroke-dasharray="none" stroke-linecap="round" stroke="none" stroke-linejoin="round" stroke-width="10px" d="M94.482,27.205L95.762,59.213C95.938,63.601,99.637,67.015,104.025,66.84C108.412,66.664,111.827,62.965,111.651,58.578L110.371,26.569C110.196,22.182,106.497,18.767,102.109,18.942C97.721,19.118,94.307,22.817,94.482,27.205Z"/>
  <path stroke-dasharray="none" stroke-opacity="1" stroke-linecap="round" stroke="none" stroke-width="20px" fill-rule="nonzero" fill="#000000" stroke-linejoin="round" fill-opacity="1" stroke-miterlimit="4" d="M91.395,11.674L61.947,20.636C53.546,23.193,48.807,32.077,51.364,40.479C53.921,48.881,62.805,53.619,71.207,51.062L100.655,42.1C109.057,39.543,113.795,30.659,111.238,22.257C108.681,13.855,99.797,9.117,91.395,11.674Z"/>
  <path stroke="none" stroke-opacity="1" stroke-width="10px" fill-rule="nonzero" stroke-miterlimit="4" fill-opacity="1" stroke-linejoin="round" fill="#000000" stroke-linecap="round" stroke-dasharray="none" d="M73.025,30.867L11.569,51.353C7.404,52.741,5.152,57.244,6.541,61.41C7.929,65.576,12.432,67.827,16.598,66.438L78.054,45.953C82.22,44.564,84.471,40.061,83.082,35.895C81.694,31.73,77.191,29.478,73.025,30.867Z"/>
</g>
  <g id="Regular-L" transform="matrix(1.0,0.0,0.0,1.0,1379.4313920142408,1483.046309072457)">  <path fill-opacity="1" stroke-miterlimit="4" stroke="none" stroke-width="1px" stroke-linejoin="miter" stroke-linecap="butt" fill-rule="evenodd" stroke-opacity="1" fill="#000000" stroke-dasharray="none" d="M143.397,19.845C143.397,11.713,136.805,5.121,128.673,5.121C120.542,5.121,113.95,11.713,113.95,19.845C113.95,27.977,120.542,34.569,128.673,34.569C136.805,34.569,143.397,27.977,143.397,19.845ZM143.397,19.845"/>
  <path fill="#000000" fill-opacity="1" stroke-opacity="1" stroke-width="10px" stroke-linecap="round" stroke="none" fill-rule="nonzero" stroke-dasharray="none" stroke-miterlimit="4" stroke-linejoin="round" d="M96.03,27.143L97.31,59.151C97.452,62.684,100.43,65.433,103.963,65.292C107.495,65.151,110.245,62.172,110.103,58.639L108.823,26.631C108.682,23.098,105.704,20.349,102.171,20.49C98.638,20.632,95.889,23.61,96.03,27.143Z"/>
  <path fill="#000000" stroke-width="20px" stroke="none" stroke-opacity="1" stroke-linecap="round" fill-opacity="1" stroke-dasharray="none" stroke-linejoin="round" fill-rule="nonzero" stroke-miterlimit="4" d="M92.297,14.638L62.849,23.601C56.085,25.659,52.27,32.812,54.329,39.577C56.387,46.342,63.54,50.157,70.305,48.098L99.753,39.136C106.517,37.077,110.332,29.924,108.274,23.159C106.215,16.395,99.062,12.58,92.297,14.638Z"/>
  <path stroke-dasharray="none" stroke-linecap="round" stroke-width="10px" stroke-opacity="1" stroke-miterlimit="4" stroke-linejoin="round" fill-opacity="1" fill="#000000" fill-rule="nonzero" stroke="none" d="M73.515,32.337L12.059,52.822C8.705,53.94,6.893,57.566,8.011,60.92C9.129,64.274,12.754,66.087,16.108,64.969L77.564,44.483C80.918,43.365,82.731,39.739,81.613,36.385C80.495,33.031,76.869,31.219,73.515,32.337Z"/>
</g>
  <g id="Light-L" transform="matrix(1.0,0.0,0.0,1.0,1082.721392014241,1483.046309072457)">  <path stroke-dasharray="none" stroke-miterlimit="4" stroke="none" fill-opacity="1" stroke-width="1px" stroke-linecap="butt" fill="#000000" stroke-linejoin="miter" stroke-opacity="1" fill-rule="evenodd" d="M143.397,19.845C143.397,11.713,136.805,5.121,128.673,5.121C120.542,5.121,113.95,11.713,113.95,19.845C113.95,27.977,120.542,34.569,128.673,34.569C136.805,34.569,143.397,27.977,143.397,19.845ZM143.397,19.845"/>
  <path stroke-width="10px" stroke-miterlimit="4" stroke-linejoin="round" stroke-dasharray="none" fill-rule="nonzero" fill-opacity="1" stroke-opacity="1" stroke="none" fill="#000000" stroke-linecap="round" d="M97.096,27.1L98.376,59.108C98.494,62.052,100.976,64.343,103.92,64.226C106.864,64.108,109.155,61.626,109.037,58.682L107.757,26.674C107.64,23.73,105.158,21.439,102.214,21.557C99.27,21.674,96.979,24.156,97.096,27.1Z"/>
  <path stroke-linecap="round" stroke-width="20px" stroke-miterlimit="4" fill-rule="nonzero" stroke="none" stroke-opacity="1" stroke-dasharray="none" fill="#000000" stroke-linejoin="round" fill-opacity="1" d="M92.918,16.68L63.471,25.642C57.834,27.358,54.654,33.318,56.37,38.956C58.086,44.593,64.046,47.772,69.684,46.056L99.131,37.094C104.769,35.379,107.948,29.418,106.232,23.781C104.516,18.143,98.556,14.964,92.918,16.68Z"/>
  <path stroke-linejoin="round" stroke-miterlimit="4" stroke-opacity="1" stroke-width="10px" fill-opacity="1" fill-rule="nonzero" fill="#000000" stroke-dasharray="none" stroke="none" stroke-linecap="round" d="M73.853,33.349L12.397,53.834C9.602,54.766,8.091,57.787,9.023,60.582C9.954,63.378,12.976,64.888,15.771,63.956L77.227,43.471C80.022,42.539,81.532,39.518,80.6,36.723C79.669,33.928,76.648,32.417,73.853,33.349Z"/>
</g>
  <g id="Thin-L" transform="matrix(1.0,0.0,0.0,1.0,786.0113920142411,1483.046309072457)">  <path stroke="none" stroke-width="1px" stroke-miterlimit="4" fill="#000000" fill-opacity="1" stroke-opacity="1" stroke-linecap="butt" fill-rule="evenodd" stroke-dasharray="none" stroke-linejoin="miter" d="M143.397,19.845C143.397,11.713,136.805,5.121,128.673,5.121C120.542,5.121,113.95,11.713,113.95,19.845C113.95,27.977,120.542,34.569,128.673,34.569C136.805,34.569,143.397,27.977,143.397,19.845ZM143.397,19.845"/>
  <path stroke-width="10px" stroke-opacity="1" fill-opacity="1" stroke="none" fill-rule="nonzero" stroke-linejoin="round" stroke-linecap="round" fill="#000000" stroke-dasharray="none" stroke-miterlimit="4" d="M98.162,27.058L99.443,59.066C99.537,61.421,101.522,63.254,103.877,63.16C106.233,63.065,108.065,61.08,107.971,58.725L106.691,26.716C106.597,24.361,104.611,22.528,102.256,22.623C99.901,22.717,98.068,24.702,98.162,27.058Z"/>
  <path fill="#000000" stroke-linejoin="round" stroke="none" stroke-dasharray="none" stroke-linecap="round" stroke-miterlimit="4" stroke-opacity="1" fill-opacity="1" stroke-width="20px" fill-rule="nonzero" d="M93.54,18.721L64.092,27.683C59.582,29.056,57.039,33.825,58.411,38.334C59.784,42.844,64.553,45.387,69.062,44.015L98.51,35.053C103.02,33.68,105.563,28.912,104.191,24.402C102.818,19.892,98.05,17.349,93.54,18.721Z"/>
  <path fill="#000000" stroke-dasharray="none" stroke-linecap="round" stroke-opacity="1" stroke="none" stroke-width="10px" fill-rule="nonzero" stroke-linejoin="round" stroke-miterlimit="4" fill-opacity="1" d="M74.19,34.361L12.734,54.847C10.498,55.592,9.29,58.009,10.035,60.245C10.78,62.481,13.197,63.69,15.433,62.944L76.889,42.459C79.125,41.713,80.334,39.296,79.588,37.06C78.843,34.824,76.426,33.616,74.19,34.361Z"/>
</g>
  <g id="Ultralight-L" transform="matrix(1.0,0.0,0.0,1.0,489.30139201424106,1483.046309072457)">  <path stroke-linecap="butt" fill="#000000" stroke="none" stroke-miterlimit="4" fill-opacity="1" fill-rule="evenodd" stroke-dasharray="none" stroke-opacity="1" stroke-linejoin="miter" stroke-width="1px" d="M143.397,19.845C143.397,11.713,136.805,5.121,128.673,5.121C120.542,5.121,113.95,11.713,113.95,19.845C113.95,27.977,120.542,34.569,128.673,34.569C136.805,34.569,143.397,27.977,143.397,19.845ZM143.397,19.845"/>
  <path stroke-miterlimit="4" stroke-linejoin="round" stroke-dasharray="none" stroke="none" stroke-width="10px" fill-rule="nonzero" stroke-opacity="1" stroke-linecap="round" fill="#000000" fill-opacity="1" d="M99.229,27.015L100.509,59.023C100.579,60.79,102.068,62.164,103.835,62.094C105.601,62.023,106.976,60.534,106.905,58.767L105.625,26.759C105.554,24.993,104.065,23.618,102.299,23.689C100.533,23.759,99.158,25.249,99.229,27.015Z"/>
  <path stroke-opacity="1" fill-rule="nonzero" stroke-linecap="round" fill-opacity="1" fill="#000000" stroke-linejoin="round" stroke-width="20px" stroke-miterlimit="4" stroke="none" stroke-dasharray="none" d="M94.161,20.763L64.713,29.725C61.331,30.754,59.424,34.331,60.453,37.713C61.482,41.095,65.059,43.003,68.441,41.974L97.889,33.011C101.271,31.982,103.179,28.406,102.149,25.023C101.12,21.641,97.543,19.733,94.161,20.763Z"/>
  <path stroke-linecap="round" stroke-linejoin="round" fill="#000000" stroke-width="10px" fill-opacity="1" stroke-dasharray="none" stroke="none" stroke-opacity="1" stroke-miterlimit="4" fill-rule="nonzero" d="M74.527,35.373L13.071,55.859C11.394,56.418,10.488,58.231,11.047,59.908C11.606,61.585,13.419,62.491,15.096,61.932L76.552,41.446C78.229,40.887,79.135,39.075,78.576,37.398C78.017,35.721,76.204,34.814,74.527,35.373Z"/>
</g>
  <g id="Black-M" transform="matrix(1.0,0.0,0.0,1.0,2879.0996837319694,1061.526833129085)">  <path stroke-dasharray="none" stroke-linecap="butt" stroke-opacity="1" stroke="none" fill-rule="evenodd" stroke-linejoin="miter" fill="#000000" stroke-miterlimit="4" fill-opacity="1" stroke-width="1px" d="M111.161,15.384C111.161,9.08,106.05,3.97,99.747,3.97C93.443,3.97,88.333,9.08,88.333,15.384C88.333,21.688,93.443,26.798,99.747,26.798C106.05,26.798,111.161,21.688,111.161,15.384ZM111.161,15.384"/>
  <path stroke-opacity="1" stroke-linecap="round" fill="#000000" stroke="none" stroke-linejoin="round" fill-rule="nonzero" stroke-miterlimit="4" stroke-dasharray="none" fill-opacity="1" stroke-width="10px" d="M68.442,21.281L69.434,46.094C69.677,52.146,74.779,56.856,80.831,56.614C86.883,56.372,91.593,51.269,91.351,45.217L90.359,20.404C90.117,14.352,85.015,9.642,78.962,9.884C72.91,10.126,68.2,15.229,68.442,21.281Z"/>
  <path stroke-dasharray="none" stroke-width="20px" stroke-opacity="1" fill-rule="nonzero" stroke-linejoin="round" stroke="none" stroke-linecap="round" fill="#000000" fill-opacity="1" stroke-miterlimit="4" d="M68.052,-0.141L45.224,6.806C33.635,10.333,27.099,22.587,30.626,34.176C34.153,45.766,46.407,52.301,57.997,48.774L80.824,41.827C92.413,38.3,98.949,26.046,95.422,14.456C91.895,2.867,79.641,-3.668,68.052,-0.141Z"/>
  <path fill-opacity="1" stroke-width="10px" stroke="none" stroke-miterlimit="4" stroke-linecap="round" fill="#000000" stroke-linejoin="round" stroke-opacity="1" stroke-dasharray="none" fill-rule="nonzero" d="M55.09,19.371L7.449,35.251C1.703,37.166,-1.402,43.377,0.513,49.124C2.429,54.87,8.64,57.975,14.386,56.06L62.026,40.179C67.772,38.264,70.878,32.053,68.962,26.307C67.047,20.561,60.836,17.455,55.09,19.371Z"/>
</g>
  <g id="Heavy-M" transform="matrix(1.0,0.0,0.0,1.0,2582.3896837319694,1061.526833129085)">  <path fill-rule="evenodd" stroke-width="1px" stroke="none" stroke-linecap="butt" stroke-miterlimit="4" fill-opacity="1" fill="#000000" stroke-dasharray="none" stroke-linejoin="miter" stroke-opacity="1" d="M111.161,15.384C111.161,9.08,106.05,3.97,99.747,3.97C93.443,3.97,88.333,9.08,88.333,15.384C88.333,21.688,93.443,26.798,99.747,26.798C106.05,26.798,111.161,21.688,111.161,15.384ZM111.161,15.384"/>
  <path stroke-linecap="round" fill-opacity="1" stroke-dasharray="none" fill="#000000" stroke-opacity="1" stroke-miterlimit="4" stroke-width="10px" stroke-linejoin="round" fill-rule="nonzero" stroke="none" d="M69.642,21.233L70.634,46.046C70.85,51.435,75.394,55.629,80.783,55.414C86.173,55.198,90.367,50.654,90.151,45.265L89.159,20.452C88.944,15.063,84.4,10.869,79.01,11.084C73.621,11.3,69.427,15.843,69.642,21.233Z"/>
  <path stroke-opacity="1" stroke-width="20px" stroke-linejoin="round" fill="#000000" stroke-miterlimit="4" fill-opacity="1" fill-rule="nonzero" stroke="none" stroke-dasharray="none" stroke-linecap="round" d="M68.751,2.156L45.923,9.104C35.603,12.245,29.783,23.157,32.924,33.477C36.065,43.797,46.977,49.617,57.297,46.476L80.125,39.529C90.445,36.388,96.265,25.476,93.124,15.156C89.983,4.836,79.071,-0.984,68.751,2.156Z"/>
  <path stroke-miterlimit="4" stroke-dasharray="none" stroke-opacity="1" stroke-linecap="round" fill="#000000" stroke-linejoin="round" stroke-width="10px" fill-rule="nonzero" stroke="none" fill-opacity="1" d="M55.469,20.51L7.829,36.39C2.712,38.096,-0.053,43.627,1.653,48.744C3.358,53.861,8.889,56.626,14.006,54.92L61.646,39.04C66.763,37.334,69.529,31.804,67.823,26.687C66.117,21.57,60.586,18.804,55.469,20.51Z"/>
</g>
  <g id="Bold-M" transform="matrix(1.0,0.0,0.0,1.0,2285.6796837319694,1061.526833129085)">  <path fill-opacity="1" stroke-opacity="1" stroke="none" stroke-miterlimit="4" stroke-linecap="butt" stroke-linejoin="miter" stroke-width="1px" stroke-dasharray="none" fill="#000000" fill-rule="evenodd" d="M111.161,15.384C111.161,9.08,106.05,3.97,99.747,3.97C93.443,3.97,88.333,9.08,88.333,15.384C88.333,21.688,93.443,26.798,99.747,26.798C106.05,26.798,111.161,21.688,111.161,15.384ZM111.161,15.384"/>
  <path stroke="none" fill-rule="nonzero" stroke-opacity="1" fill="#000000" stroke-miterlimit="4" stroke-linecap="round" stroke-linejoin="round" fill-opacity="1" stroke-width="10px" stroke-dasharray="none" d="M70.842,21.185L71.834,45.998C72.023,50.724,76.008,54.403,80.735,54.214C85.462,54.025,89.14,50.04,88.951,45.313L87.959,20.5C87.77,15.774,83.785,12.095,79.058,12.284C74.332,12.473,70.653,16.458,70.842,21.185Z"/>
  <path fill-rule="nonzero" fill-opacity="1" stroke="none" stroke-width="20px" stroke-linecap="round" stroke-miterlimit="4" stroke-opacity="1" stroke-linejoin="round" fill="#000000" stroke-dasharray="none" d="M69.45,4.454L46.623,11.402C37.571,14.156,32.467,23.727,35.222,32.778C37.976,41.829,47.547,46.933,56.598,44.179L79.426,37.231C88.477,34.477,93.581,24.906,90.826,15.855C88.072,6.804,78.501,1.7,69.45,4.454Z"/>
  <path fill="#000000" fill-opacity="1" stroke-miterlimit="4" fill-rule="nonzero" stroke-opacity="1" stroke-width="10px" stroke-linejoin="round" stroke-dasharray="none" stroke-linecap="round" stroke="none" d="M55.849,21.649L8.209,37.53C3.721,39.026,1.296,43.876,2.792,48.364C4.288,52.852,9.138,55.277,13.626,53.781L61.266,37.901C65.754,36.405,68.179,31.554,66.684,27.066C65.188,22.579,60.337,20.153,55.849,21.649Z"/>
</g>
  <g id="Semibold-M" transform="matrix(1.0,0.0,0.0,1.0,1988.9696837319698,1061.526833129085)">  <path stroke="none" fill-opacity="1" stroke-linecap="butt" stroke-miterlimit="4" stroke-linejoin="miter" stroke-width="1px" fill="#000000" fill-rule="evenodd" stroke-dasharray="none" stroke-opacity="1" d="M111.161,15.384C111.161,9.08,106.05,3.97,99.747,3.97C93.443,3.97,88.333,9.08,88.333,15.384C88.333,21.688,93.443,26.798,99.747,26.798C106.05,26.798,111.161,21.688,111.161,15.384ZM111.161,15.384"/>
  <path fill-opacity="1" stroke-linecap="round" fill-rule="nonzero" stroke="none" stroke-linejoin="round" fill="#000000" stroke-dasharray="none" stroke-opacity="1" stroke-width="10px" stroke-miterlimit="4" d="M72.042,21.137L73.034,45.95C73.197,50.014,76.623,53.176,80.687,53.014C84.751,52.851,87.914,49.425,87.751,45.361L86.759,20.548C86.597,16.484,83.17,13.322,79.106,13.484C75.042,13.647,71.88,17.073,72.042,21.137Z"/>
  <path fill="#000000" fill-rule="nonzero" stroke-miterlimit="4" stroke-opacity="1" fill-opacity="1" stroke-dasharray="none" stroke-linecap="round" stroke="none" stroke-linejoin="round" stroke-width="20px" d="M70.15,6.752L47.322,13.699C39.54,16.068,35.151,24.296,37.52,32.078C39.888,39.861,48.117,44.249,55.899,41.881L78.726,34.933C86.508,32.565,90.897,24.336,88.529,16.554C86.16,8.772,77.932,4.384,70.15,6.752Z"/>
  <path stroke-linejoin="round" stroke-opacity="1" stroke-linecap="round" fill-rule="nonzero" stroke-width="10px" stroke="none" fill="#000000" fill-opacity="1" stroke-dasharray="none" stroke-miterlimit="4" d="M56.229,22.789L8.589,38.669C4.73,39.955,2.645,44.126,3.931,47.984C5.217,51.843,9.388,53.928,13.246,52.642L60.887,36.761C64.745,35.475,66.83,31.305,65.544,27.446C64.258,23.588,60.087,21.502,56.229,22.789Z"/>
</g>
  <g id="Medium-M" transform="matrix(1.0,0.0,0.0,1.0,1692.2596837319697,1061.526833129085)">  <path stroke-miterlimit="4" fill="#000000" fill-rule="evenodd" fill-opacity="1" stroke-dasharray="none" stroke-linecap="butt" stroke-width="1px" stroke="none" stroke-linejoin="miter" stroke-opacity="1" d="M111.161,15.384C111.161,9.08,106.05,3.97,99.747,3.97C93.443,3.97,88.333,9.08,88.333,15.384C88.333,21.688,93.443,26.798,99.747,26.798C106.05,26.798,111.161,21.688,111.161,15.384ZM111.161,15.384"/>
  <path fill="#000000" fill-rule="nonzero" fill-opacity="1" stroke-opacity="1" stroke-miterlimit="4" stroke-dasharray="none" stroke-linecap="round" stroke="none" stroke-linejoin="round" stroke-width="10px" d="M73.242,21.089L74.234,45.902C74.37,49.303,77.238,51.95,80.639,51.814C84.04,51.678,86.687,48.81,86.551,45.409L85.559,20.596C85.423,17.195,82.556,14.548,79.154,14.684C75.753,14.82,73.106,17.688,73.242,21.089Z"/>
  <path stroke-dasharray="none" stroke-opacity="1" stroke-linecap="round" stroke="none" stroke-width="20px" fill-rule="nonzero" fill="#000000" stroke-linejoin="round" fill-opacity="1" stroke-miterlimit="4" d="M70.849,9.05L48.021,15.997C41.508,17.979,37.835,24.866,39.817,31.379C41.8,37.892,48.686,41.565,55.199,39.583L78.027,32.636C84.54,30.653,88.213,23.767,86.231,17.254C84.249,10.741,77.362,7.068,70.849,9.05Z"/>
  <path stroke="none" stroke-opacity="1" stroke-width="10px" fill-rule="nonzero" stroke-miterlimit="4" fill-opacity="1" stroke-linejoin="round" fill="#000000" stroke-linecap="round" stroke-dasharray="none" d="M56.609,23.928L8.969,39.808C5.739,40.885,3.994,44.375,5.07,47.604C6.147,50.834,9.637,52.579,12.867,51.503L60.507,35.622C63.736,34.546,65.481,31.055,64.405,27.826C63.328,24.597,59.838,22.851,56.609,23.928Z"/>
</g>
  <g id="Regular-M" transform="matrix(1.0,0.0,0.0,1.0,1395.5496837319697,1061.526833129085)">  <path fill-opacity="1" stroke-miterlimit="4" stroke="none" stroke-width="1px" stroke-linejoin="miter" stroke-linecap="butt" fill-rule="evenodd" stroke-opacity="1" fill="#000000" stroke-dasharray="none" d="M111.161,15.384C111.161,9.08,106.05,3.97,99.747,3.97C93.443,3.97,88.333,9.08,88.333,15.384C88.333,21.688,93.443,26.798,99.747,26.798C106.05,26.798,111.161,21.688,111.161,15.384ZM111.161,15.384"/>
  <path fill="#000000" fill-opacity="1" stroke-opacity="1" stroke-width="10px" stroke-linecap="round" stroke="none" fill-rule="nonzero" stroke-dasharray="none" stroke-miterlimit="4" stroke-linejoin="round" d="M74.442,21.041L75.434,45.854C75.544,48.592,77.853,50.723,80.591,50.614C83.33,50.504,85.461,48.195,85.351,45.457L84.359,20.644C84.25,17.906,81.941,15.775,79.202,15.884C76.464,15.994,74.333,18.302,74.442,21.041Z"/>
  <path fill="#000000" stroke-width="20px" stroke="none" stroke-opacity="1" stroke-linecap="round" fill-opacity="1" stroke-dasharray="none" stroke-linejoin="round" fill-rule="nonzero" stroke-miterlimit="4" d="M71.548,11.348L48.721,18.295C43.477,19.891,40.519,25.436,42.115,30.68C43.711,35.924,49.256,38.881,54.5,37.285L77.328,30.338C82.572,28.742,85.529,23.197,83.933,17.953C82.337,12.709,76.792,9.752,71.548,11.348Z"/>
  <path stroke-dasharray="none" stroke-linecap="round" stroke-width="10px" stroke-opacity="1" stroke-miterlimit="4" stroke-linejoin="round" fill-opacity="1" fill="#000000" fill-rule="nonzero" stroke="none" d="M56.988,25.067L9.348,40.948C6.748,41.814,5.343,44.625,6.21,47.225C7.076,49.825,9.887,51.23,12.487,50.363L60.127,34.483C62.727,33.616,64.132,30.806,63.266,28.206C62.399,25.606,59.589,24.2,56.988,25.067Z"/>
</g>
  <g id="Light-M" transform="matrix(1.0,0.0,0.0,1.0,1098.83968373197,1061.526833129085)">  <path stroke-dasharray="none" stroke-miterlimit="4" stroke="none" fill-opacity="1" stroke-width="1px" stroke-linecap="butt" fill="#000000" stroke-linejoin="miter" stroke-opacity="1" fill-rule="evenodd" d="M111.161,15.384C111.161,9.08,106.05,3.97,99.747,3.97C93.443,3.97,88.333,9.08,88.333,15.384C88.333,21.688,93.443,26.798,99.747,26.798C106.05,26.798,111.161,21.688,111.161,15.384ZM111.161,15.384"/>
  <path stroke-width="10px" stroke-miterlimit="4" stroke-linejoin="round" stroke-dasharray="none" fill-rule="nonzero" fill-opacity="1" stroke-opacity="1" stroke="none" fill="#000000" stroke-linecap="round" d="M75.268,21.008L76.261,45.821C76.352,48.103,78.276,49.879,80.558,49.787C82.84,49.696,84.616,47.772,84.525,45.49L83.533,20.677C83.441,18.395,81.517,16.619,79.235,16.71C76.953,16.802,75.177,18.726,75.268,21.008Z"/>
  <path stroke-linecap="round" stroke-width="20px" stroke-miterlimit="4" fill-rule="nonzero" stroke="none" stroke-opacity="1" stroke-dasharray="none" fill="#000000" stroke-linejoin="round" fill-opacity="1" d="M72.03,12.93L49.202,19.878C44.832,21.208,42.368,25.828,43.698,30.198C45.028,34.568,49.648,37.033,54.018,35.703L76.846,28.755C81.216,27.425,83.68,22.805,82.35,18.435C81.021,14.065,76.4,11.6,72.03,12.93Z"/>
  <path stroke-linejoin="round" stroke-miterlimit="4" stroke-opacity="1" stroke-width="10px" fill-opacity="1" fill-rule="nonzero" fill="#000000" stroke-dasharray="none" stroke="none" stroke-linecap="round" d="M57.25,25.852L9.61,41.732C7.443,42.454,6.272,44.796,6.994,46.963C7.717,49.13,10.059,50.301,12.225,49.579L59.866,33.698C62.032,32.976,63.203,30.634,62.481,28.467C61.759,26.301,59.417,25.13,57.25,25.852Z"/>
</g>
  <g id="Thin-M" transform="matrix(1.0,0.0,0.0,1.0,802.1296837319699,1061.526833129085)">  <path stroke="none" stroke-width="1px" stroke-miterlimit="4" fill="#000000" fill-opacity="1" stroke-opacity="1" stroke-linecap="butt" fill-rule="evenodd" stroke-dasharray="none" stroke-linejoin="miter" d="M111.161,15.384C111.161,9.08,106.05,3.97,99.747,3.97C93.443,3.97,88.333,9.08,88.333,15.384C88.333,21.688,93.443,26.798,99.747,26.798C106.05,26.798,111.161,21.688,111.161,15.384ZM111.161,15.384"/>
  <path stroke-width="10px" stroke-opacity="1" fill-opacity="1" stroke="none" fill-rule="nonzero" stroke-linejoin="round" stroke-linecap="round" fill="#000000" stroke-dasharray="none" stroke-miterlimit="4" d="M76.095,20.975L77.087,45.787C77.16,47.613,78.699,49.034,80.525,48.961C82.351,48.888,83.772,47.349,83.699,45.523L82.706,20.71C82.633,18.885,81.094,17.464,79.268,17.537C77.443,17.61,76.022,19.149,76.095,20.975Z"/>
  <path fill="#000000" stroke-linejoin="round" stroke="none" stroke-dasharray="none" stroke-linecap="round" stroke-miterlimit="4" stroke-opacity="1" fill-opacity="1" stroke-width="20px" fill-rule="nonzero" d="M72.511,14.513L49.684,21.46C46.188,22.524,44.216,26.221,45.28,29.717C46.344,33.213,50.041,35.184,53.537,34.12L76.364,27.173C79.86,26.109,81.832,22.412,80.768,18.916C79.704,15.42,76.007,13.449,72.511,14.513Z"/>
  <path fill="#000000" stroke-dasharray="none" stroke-linecap="round" stroke-opacity="1" stroke="none" stroke-width="10px" fill-rule="nonzero" stroke-linejoin="round" stroke-miterlimit="4" fill-opacity="1" d="M57.512,26.636L9.871,42.517C8.138,43.095,7.201,44.968,7.779,46.702C8.357,48.435,10.23,49.372,11.964,48.794L59.604,32.914C61.337,32.336,62.274,30.462,61.696,28.729C61.119,26.995,59.245,26.059,57.512,26.636Z"/>
</g>
  <g id="Ultralight-M" transform="matrix(1.0,0.0,0.0,1.0,505.4196837319698,1061.526833129085)">  <path stroke-linecap="butt" fill="#000000" stroke="none" stroke-miterlimit="4" fill-opacity="1" fill-rule="evenodd" stroke-dasharray="none" stroke-opacity="1" stroke-linejoin="miter" stroke-width="1px" d="M111.161,15.384C111.161,9.08,106.05,3.97,99.747,3.97C93.443,3.97,88.333,9.08,88.333,15.384C88.333,21.688,93.443,26.798,99.747,26.798C106.05,26.798,111.161,21.688,111.161,15.384ZM111.161,15.384"/>
  <path stroke-miterlimit="4" stroke-linejoin="round" stroke-dasharray="none" stroke="none" stroke-width="10px" fill-rule="nonzero" stroke-opacity="1" stroke-linecap="round" fill="#000000" fill-opacity="1" d="M76.921,20.942L77.914,45.754C77.968,47.124,79.123,48.189,80.492,48.135C81.861,48.08,82.927,46.925,82.872,45.556L81.88,20.743C81.825,19.374,80.671,18.309,79.301,18.363C77.932,18.418,76.867,19.572,76.921,20.942Z"/>
  <path stroke-opacity="1" fill-rule="nonzero" stroke-linecap="round" fill-opacity="1" fill="#000000" stroke-linejoin="round" stroke-width="20px" stroke-miterlimit="4" stroke="none" stroke-dasharray="none" d="M72.993,16.095L50.165,23.043C47.543,23.841,46.065,26.613,46.863,29.235C47.661,31.857,50.433,33.336,53.055,32.538L75.883,25.59C78.505,24.792,79.983,22.02,79.185,19.398C78.387,16.776,75.615,15.297,72.993,16.095Z"/>
  <path stroke-linecap="round" stroke-linejoin="round" fill="#000000" stroke-width="10px" fill-opacity="1" stroke-dasharray="none" stroke="none" stroke-opacity="1" stroke-miterlimit="4" fill-rule="nonzero" d="M57.773,27.421L10.133,43.301C8.833,43.735,8.13,45.14,8.564,46.44C8.997,47.74,10.402,48.443,11.702,48.009L59.342,32.129C60.642,31.696,61.345,30.29,60.912,28.99C60.478,27.69,59.073,26.988,57.773,27.421Z"/>
</g>
  <g id="Black-S" transform="matrix(1.0,0.0,0.0,1.0,2891.1606123621323,637.8726045783548)">  <path stroke-dasharray="none" stroke-linecap="butt" stroke-opacity="1" stroke="none" fill-rule="evenodd" stroke-linejoin="miter" fill="#000000" stroke-miterlimit="4" fill-opacity="1" stroke-width="1px" d="M87.039,12.046C87.039,7.11,83.038,3.109,78.102,3.109C73.166,3.109,69.165,7.11,69.165,12.046C69.165,16.981,73.166,20.983,78.102,20.983C83.038,20.983,87.039,16.981,87.039,12.046ZM87.039,12.046"/>
  <path stroke-opacity="1" stroke-linecap="round" fill="#000000" stroke="none" stroke-linejoin="round" fill-rule="nonzero" stroke-miterlimit="4" stroke-dasharray="none" fill-opacity="1" stroke-width="10px" d="M53.59,16.663L54.367,36.091C54.557,40.83,58.552,44.518,63.291,44.329C68.03,44.139,71.718,40.144,71.528,35.405L70.751,15.977C70.562,11.238,66.566,7.55,61.828,7.739C57.089,7.929,53.401,11.924,53.59,16.663Z"/>
  <path stroke-dasharray="none" stroke-width="20px" stroke-opacity="1" fill-rule="nonzero" stroke-linejoin="round" stroke="none" stroke-linecap="round" fill="#000000" fill-opacity="1" stroke-miterlimit="4" d="M53.284,-0.111L35.41,5.329C26.336,8.091,21.219,17.686,23.98,26.76C26.742,35.834,36.337,40.952,45.411,38.19L63.285,32.75C72.36,29.989,77.477,20.394,74.715,11.319C71.954,2.245,62.359,-2.872,53.284,-0.111Z"/>
  <path fill-opacity="1" stroke-width="10px" stroke="none" stroke-miterlimit="4" stroke-linecap="round" fill="#000000" stroke-linejoin="round" stroke-opacity="1" stroke-dasharray="none" fill-rule="nonzero" d="M43.135,15.167L5.833,27.602C1.334,29.101,-1.098,33.964,0.402,38.464C1.902,42.963,6.765,45.395,11.264,43.895L48.566,31.46C53.066,29.961,55.497,25.097,53.997,20.598C52.498,16.099,47.634,13.667,43.135,15.167Z"/>
</g>
  <g id="Heavy-S" transform="matrix(1.0,0.0,0.0,1.0,2594.4506123621322,637.8726045783548)">  <path fill-rule="evenodd" stroke-width="1px" stroke="none" stroke-linecap="butt" stroke-miterlimit="4" fill-opacity="1" fill="#000000" stroke-dasharray="none" stroke-linejoin="miter" stroke-opacity="1" d="M87.039,12.046C87.039,7.11,83.038,3.109,78.102,3.109C73.166,3.109,69.165,7.11,69.165,12.046C69.165,16.981,73.166,20.983,78.102,20.983C83.038,20.983,87.039,16.981,87.039,12.046ZM87.039,12.046"/>
  <path stroke-linecap="round" fill-opacity="1" stroke-dasharray="none" fill="#000000" stroke-opacity="1" stroke-miterlimit="4" stroke-width="10px" stroke-linejoin="round" fill-rule="nonzero" stroke="none" d="M54.53,16.625L55.307,36.054C55.476,40.274,59.033,43.558,63.253,43.389C67.473,43.22,70.757,39.662,70.589,35.442L69.812,16.014C69.643,11.794,66.085,8.51,61.865,8.679C57.645,8.848,54.361,12.405,54.53,16.625Z"/>
  <path stroke-opacity="1" stroke-width="20px" stroke-linejoin="round" fill="#000000" stroke-miterlimit="4" fill-opacity="1" fill-rule="nonzero" stroke="none" stroke-dasharray="none" stroke-linecap="round" d="M53.832,1.688L35.958,7.128C27.877,9.588,23.32,18.132,25.779,26.213C28.239,34.293,36.783,38.85,44.864,36.391L62.738,30.951C70.818,28.492,75.376,19.948,72.916,11.867C70.457,3.786,61.913,-0.771,53.832,1.688Z"/>
  <path stroke-miterlimit="4" stroke-dasharray="none" stroke-opacity="1" stroke-linecap="round" fill="#000000" stroke-linejoin="round" stroke-width="10px" fill-rule="nonzero" stroke="none" fill-opacity="1" d="M43.433,16.059L6.13,28.494C2.124,29.829,-0.042,34.16,1.294,38.166C2.629,42.173,6.96,44.338,10.967,43.003L48.269,30.568C52.276,29.233,54.441,24.902,53.105,20.896C51.77,16.889,47.439,14.724,43.433,16.059Z"/>
</g>
  <g id="Bold-S" transform="matrix(1.0,0.0,0.0,1.0,2297.740612362132,637.8726045783548)">  <path fill-opacity="1" stroke-opacity="1" stroke="none" stroke-miterlimit="4" stroke-linecap="butt" stroke-linejoin="miter" stroke-width="1px" stroke-dasharray="none" fill="#000000" fill-rule="evenodd" d="M87.039,12.046C87.039,7.11,83.038,3.109,78.102,3.109C73.166,3.109,69.165,7.11,69.165,12.046C69.165,16.981,73.166,20.983,78.102,20.983C83.038,20.983,87.039,16.981,87.039,12.046ZM87.039,12.046"/>
  <path stroke="none" fill-rule="nonzero" stroke-opacity="1" fill="#000000" stroke-miterlimit="4" stroke-linecap="round" stroke-linejoin="round" fill-opacity="1" stroke-width="10px" stroke-dasharray="none" d="M55.469,16.588L56.246,36.016C56.394,39.717,59.515,42.597,63.216,42.449C66.917,42.301,69.797,39.181,69.649,35.48L68.872,16.052C68.724,12.351,65.604,9.47,61.903,9.618C58.202,9.766,55.321,12.887,55.469,16.588Z"/>
  <path fill-rule="nonzero" fill-opacity="1" stroke="none" stroke-width="20px" stroke-linecap="round" stroke-miterlimit="4" stroke-opacity="1" stroke-linejoin="round" fill="#000000" stroke-dasharray="none" d="M54.38,3.488L36.505,8.927C29.418,11.084,25.422,18.578,27.579,25.665C29.736,32.752,37.229,36.749,44.316,34.592L62.19,29.152C69.277,26.995,73.274,19.502,71.117,12.414C68.96,5.327,61.467,1.331,54.38,3.488Z"/>
  <path fill="#000000" fill-opacity="1" stroke-miterlimit="4" fill-rule="nonzero" stroke-opacity="1" stroke-width="10px" stroke-linejoin="round" stroke-dasharray="none" stroke-linecap="round" stroke="none" d="M43.73,16.951L6.428,29.386C2.914,30.557,1.015,34.355,2.186,37.869C3.357,41.383,7.155,43.282,10.669,42.111L47.972,29.676C51.486,28.505,53.385,24.707,52.213,21.193C51.042,17.679,47.244,15.78,43.73,16.951Z"/>
</g>
  <g id="Semibold-S" transform="matrix(1.0,0.0,0.0,1.0,2001.0306123621324,637.8726045783548)">  <path stroke="none" fill-opacity="1" stroke-linecap="butt" stroke-miterlimit="4" stroke-linejoin="miter" stroke-width="1px" fill="#000000" fill-rule="evenodd" stroke-dasharray="none" stroke-opacity="1" d="M87.039,12.046C87.039,7.11,83.038,3.109,78.102,3.109C73.166,3.109,69.165,7.11,69.165,12.046C69.165,16.981,73.166,20.983,78.102,20.983C83.038,20.983,87.039,16.981,87.039,12.046ZM87.039,12.046"/>
  <path fill-opacity="1" stroke-linecap="round" fill-rule="nonzero" stroke="none" stroke-linejoin="round" fill="#000000" stroke-dasharray="none" stroke-opacity="1" stroke-width="10px" stroke-miterlimit="4" d="M56.409,16.55L57.186,35.978C57.313,39.161,59.996,41.637,63.178,41.51C66.36,41.383,68.837,38.7,68.709,35.518L67.932,16.089C67.805,12.907,65.122,10.431,61.94,10.558C58.758,10.685,56.282,13.368,56.409,16.55Z"/>
  <path fill="#000000" fill-rule="nonzero" stroke-miterlimit="4" stroke-opacity="1" fill-opacity="1" stroke-dasharray="none" stroke-linecap="round" stroke="none" stroke-linejoin="round" stroke-width="20px" d="M54.927,5.287L37.053,10.727C30.96,12.581,27.523,19.024,29.378,25.117C31.232,31.211,37.675,34.647,43.769,32.793L61.643,27.353C67.736,25.498,71.172,19.055,69.318,12.962C67.463,6.869,61.02,3.432,54.927,5.287Z"/>
  <path stroke-linejoin="round" stroke-opacity="1" stroke-linecap="round" fill-rule="nonzero" stroke-width="10px" stroke="none" fill="#000000" fill-opacity="1" stroke-dasharray="none" stroke-miterlimit="4" d="M44.027,17.843L6.725,30.278C3.704,31.285,2.071,34.55,3.078,37.572C4.085,40.593,7.351,42.226,10.372,41.219L47.674,28.784C50.695,27.777,52.328,24.512,51.321,21.49C50.314,18.469,47.048,16.836,44.027,17.843Z"/>
</g>
  <g id="Medium-S" transform="matrix(1.0,0.0,0.0,1.0,1704.3206123621324,637.8726045783548)">  <path stroke-miterlimit="4" fill="#000000" fill-rule="evenodd" fill-opacity="1" stroke-dasharray="none" stroke-linecap="butt" stroke-width="1px" stroke="none" stroke-linejoin="miter" stroke-opacity="1" d="M87.039,12.046C87.039,7.11,83.038,3.109,78.102,3.109C73.166,3.109,69.165,7.11,69.165,12.046C69.165,16.981,73.166,20.983,78.102,20.983C83.038,20.983,87.039,16.981,87.039,12.046ZM87.039,12.046"/>
  <path fill="#000000" fill-rule="nonzero" fill-opacity="1" stroke-opacity="1" stroke-miterlimit="4" stroke-dasharray="none" stroke-linecap="round" stroke="none" stroke-linejoin="round" stroke-width="10px" d="M57.349,16.513L58.126,35.941C58.232,38.604,60.477,40.677,63.141,40.57C65.804,40.464,67.876,38.218,67.77,35.555L66.993,16.127C66.886,13.464,64.641,11.391,61.978,11.498C59.315,11.604,57.242,13.849,57.349,16.513Z"/>
  <path stroke-dasharray="none" stroke-opacity="1" stroke-linecap="round" stroke="none" stroke-width="20px" fill-rule="nonzero" fill="#000000" stroke-linejoin="round" fill-opacity="1" stroke-miterlimit="4" d="M55.475,7.086L37.601,12.526C32.501,14.078,29.625,19.47,31.177,24.57C32.729,29.67,38.121,32.545,43.221,30.993L61.095,25.554C66.195,24.002,69.071,18.609,67.519,13.51C65.967,8.41,60.574,5.534,55.475,7.086Z"/>
  <path stroke="none" stroke-opacity="1" stroke-width="10px" fill-rule="nonzero" stroke-miterlimit="4" fill-opacity="1" stroke-linejoin="round" fill="#000000" stroke-linecap="round" stroke-dasharray="none" d="M44.325,18.736L7.022,31.17C4.494,32.013,3.127,34.746,3.97,37.274C4.813,39.803,7.546,41.169,10.075,40.326L47.377,27.892C49.905,27.049,51.272,24.316,50.429,21.788C49.586,19.259,46.853,17.893,44.325,18.736Z"/>
</g>
  <g id="Regular-S" transform="matrix(1.0,0.0,0.0,1.0,1407.6106123621323,637.8726045783548)">  <path fill-opacity="1" stroke-miterlimit="4" stroke="none" stroke-width="1px" stroke-linejoin="miter" stroke-linecap="butt" fill-rule="evenodd" stroke-opacity="1" fill="#000000" stroke-dasharray="none" d="M87.039,12.046C87.039,7.11,83.038,3.109,78.102,3.109C73.166,3.109,69.165,7.11,69.165,12.046C69.165,16.981,73.166,20.983,78.102,20.983C83.038,20.983,87.039,16.981,87.039,12.046ZM87.039,12.046"/>
  <path fill="#000000" fill-opacity="1" stroke-opacity="1" stroke-width="10px" stroke-linecap="round" stroke="none" fill-rule="nonzero" stroke-dasharray="none" stroke-miterlimit="4" stroke-linejoin="round" d="M58.288,16.475L59.065,35.903C59.151,38.048,60.959,39.716,63.103,39.631C65.247,39.545,66.916,37.737,66.83,35.593L66.053,16.165C65.967,14.02,64.16,12.351,62.015,12.437C59.871,12.523,58.202,14.331,58.288,16.475Z"/>
  <path fill="#000000" stroke-width="20px" stroke="none" stroke-opacity="1" stroke-linecap="round" fill-opacity="1" stroke-dasharray="none" stroke-linejoin="round" fill-rule="nonzero" stroke-miterlimit="4" d="M56.022,8.885L38.148,14.325C34.042,15.575,31.727,19.916,32.976,24.022C34.226,28.128,38.567,30.444,42.674,29.194L60.548,23.754C64.654,22.505,66.969,18.163,65.72,14.057C64.47,9.951,60.128,7.636,56.022,8.885Z"/>
  <path stroke-dasharray="none" stroke-linecap="round" stroke-width="10px" stroke-opacity="1" stroke-miterlimit="4" stroke-linejoin="round" fill-opacity="1" fill="#000000" fill-rule="nonzero" stroke="none" d="M44.622,19.628L7.32,32.062C5.284,32.741,4.184,34.941,4.862,36.977C5.541,39.013,7.741,40.113,9.777,39.434L47.08,27C49.115,26.321,50.216,24.121,49.537,22.085C48.858,20.049,46.658,18.949,44.622,19.628Z"/>
</g>
  <g id="Light-S" transform="matrix(1.0,0.0,0.0,1.0,1110.9006123621325,637.8726045783548)">  <path stroke-dasharray="none" stroke-miterlimit="4" stroke="none" fill-opacity="1" stroke-width="1px" stroke-linecap="butt" fill="#000000" stroke-linejoin="miter" stroke-opacity="1" fill-rule="evenodd" d="M87.039,12.046C87.039,7.11,83.038,3.109,78.102,3.109C73.166,3.109,69.165,7.11,69.165,12.046C69.165,16.981,73.166,20.983,78.102,20.983C83.038,20.983,87.039,16.981,87.039,12.046ZM87.039,12.046"/>
  <path stroke-width="10px" stroke-miterlimit="4" stroke-linejoin="round" stroke-dasharray="none" fill-rule="nonzero" fill-opacity="1" stroke-opacity="1" stroke="none" fill="#000000" stroke-linecap="round" d="M58.935,16.449L59.712,35.877C59.784,37.664,61.29,39.055,63.077,38.984C64.864,38.912,66.255,37.406,66.183,35.619L65.406,16.19C65.335,14.403,63.828,13.013,62.041,13.084C60.254,13.156,58.864,14.662,58.935,16.449Z"/>
  <path stroke-linecap="round" stroke-width="20px" stroke-miterlimit="4" fill-rule="nonzero" stroke="none" stroke-opacity="1" stroke-dasharray="none" fill="#000000" stroke-linejoin="round" fill-opacity="1" d="M56.399,10.124L38.525,15.564C35.104,16.605,33.174,20.223,34.215,23.645C35.257,27.067,38.875,28.997,42.296,27.955L60.17,22.515C63.592,21.474,65.522,17.856,64.48,14.434C63.439,11.013,59.821,9.083,56.399,10.124Z"/>
  <path stroke-linejoin="round" stroke-miterlimit="4" stroke-opacity="1" stroke-width="10px" fill-opacity="1" fill-rule="nonzero" fill="#000000" stroke-dasharray="none" stroke="none" stroke-linecap="round" d="M44.827,20.242L7.524,32.676C5.828,33.242,4.911,35.076,5.477,36.772C6.042,38.469,7.876,39.386,9.572,38.82L46.875,26.386C48.571,25.82,49.488,23.986,48.923,22.29C48.357,20.593,46.523,19.676,44.827,20.242Z"/>
</g>
  <g id="Thin-S" transform="matrix(1.0,0.0,0.0,1.0,814.1906123621324,637.8726045783548)">  <path stroke="none" stroke-width="1px" stroke-miterlimit="4" fill="#000000" fill-opacity="1" stroke-opacity="1" stroke-linecap="butt" fill-rule="evenodd" stroke-dasharray="none" stroke-linejoin="miter" d="M87.039,12.046C87.039,7.11,83.038,3.109,78.102,3.109C73.166,3.109,69.165,7.11,69.165,12.046C69.165,16.981,73.166,20.983,78.102,20.983C83.038,20.983,87.039,16.981,87.039,12.046ZM87.039,12.046"/>
  <path stroke-width="10px" stroke-opacity="1" fill-opacity="1" stroke="none" fill-rule="nonzero" stroke-linejoin="round" stroke-linecap="round" fill="#000000" stroke-dasharray="none" stroke-miterlimit="4" d="M59.582,16.423L60.359,35.852C60.416,37.281,61.622,38.394,63.051,38.336C64.481,38.279,65.593,37.074,65.536,35.645L64.759,16.216C64.702,14.787,63.497,13.674,62.067,13.731C60.638,13.789,59.525,14.994,59.582,16.423Z"/>
  <path fill="#000000" stroke-linejoin="round" stroke="none" stroke-dasharray="none" stroke-linecap="round" stroke-miterlimit="4" stroke-opacity="1" fill-opacity="1" stroke-width="20px" fill-rule="nonzero" d="M56.776,11.363L38.902,16.803C36.165,17.636,34.621,20.531,35.454,23.268C36.288,26.005,39.182,27.549,41.919,26.716L59.793,21.276C62.531,20.443,64.074,17.549,63.241,14.811C62.408,12.074,59.514,10.53,56.776,11.363Z"/>
  <path fill="#000000" stroke-dasharray="none" stroke-linecap="round" stroke-opacity="1" stroke="none" stroke-width="10px" fill-rule="nonzero" stroke-linejoin="round" stroke-miterlimit="4" fill-opacity="1" d="M45.032,20.856L7.729,33.291C6.372,33.743,5.639,35.21,6.091,36.567C6.543,37.925,8.01,38.658,9.368,38.206L46.67,25.771C48.027,25.319,48.761,23.852,48.308,22.495C47.856,21.137,46.389,20.404,45.032,20.856Z"/>
</g>
  <g id="Ultralight-S" transform="matrix(1.0,0.0,0.0,1.0,517.4806123621323,637.8726045783548)">  <path stroke-linecap="butt" fill="#000000" stroke="none" stroke-miterlimit="4" fill-opacity="1" fill-rule="evenodd" stroke-dasharray="none" stroke-opacity="1" stroke-linejoin="miter" stroke-width="1px" d="M87.039,12.046C87.039,7.11,83.038,3.109,78.102,3.109C73.166,3.109,69.165,7.11,69.165,12.046C69.165,16.981,73.166,20.983,78.102,20.983C83.038,20.983,87.039,16.981,87.039,12.046ZM87.039,12.046"/>
  <path stroke-miterlimit="4" stroke-linejoin="round" stroke-dasharray="none" stroke="none" stroke-width="10px" fill-rule="nonzero" stroke-opacity="1" stroke-linecap="round" fill="#000000" fill-opacity="1" d="M60.229,16.397L61.006,35.826C61.049,36.898,61.953,37.732,63.025,37.689C64.097,37.646,64.932,36.743,64.889,35.67L64.112,16.242C64.069,15.17,63.165,14.336,62.093,14.378C61.021,14.421,60.187,15.325,60.229,16.397Z"/>
  <path stroke-opacity="1" fill-rule="nonzero" stroke-linecap="round" fill-opacity="1" fill="#000000" stroke-linejoin="round" stroke-width="20px" stroke-miterlimit="4" stroke="none" stroke-dasharray="none" d="M57.154,12.603L39.28,18.042C37.226,18.667,36.069,20.838,36.694,22.891C37.318,24.944,39.489,26.102,41.542,25.477L59.416,20.037C61.469,19.412,62.627,17.242,62.002,15.189C61.377,13.135,59.207,11.978,57.154,12.603Z"/>
  <path stroke-linecap="round" stroke-linejoin="round" fill="#000000" stroke-width="10px" fill-opacity="1" stroke-dasharray="none" stroke="none" stroke-opacity="1" stroke-miterlimit="4" fill-rule="nonzero" d="M45.236,21.471L7.934,33.905C6.916,34.244,6.366,35.345,6.705,36.363C7.045,37.38,8.145,37.931,9.163,37.591L46.465,25.157C47.483,24.818,48.033,23.717,47.694,22.699C47.355,21.682,46.254,21.131,45.236,21.471Z"/>
</g>
 </g>
</svg>
