<?xml version="1.0" encoding="UTF-8"?>
<!-- Generator: CustomSymbols v2.7.2.48 by @serious_bret https://bretlester.com/app_content/CustomSymbols/ -->
<!-- Guides: Left/Right 0.107/-0.021 Cap/Base 0.153/0.199 -->
<!-- Settings: RefScale 1.0 Min/Max Stroke Scales 0.5/2.21 -->
<!DOCTYPE svg
PUBLIC "-//W3C//DTD SVG 1.1//EN"
       "http://www.w3.org/Graphics/SVG/1.1/DTD/svg11.dtd">
<svg version="1.1" xmlns="http://www.w3.org/2000/svg" xmlns:xlink="http://www.w3.org/1999/xlink" width="3300" height="2200">
<![CDATA[<?xml version="1.0" encoding="UTF-8"?>
<!-- Generated by Pixelmator Pro 3.6.14 -->
<svg width="75" height="77" viewBox="0 0 75 77" xmlns="http://www.w3.org/2000/svg">
    <g id="Group-copy">
        <path id="Path" fill="none" stroke="#000000" stroke-width="9" stroke-linecap="round" stroke-linejoin="round" d="M 64 27.000015 L 26.00001 27.000164"/>
        <path id="path1" fill="none" stroke="#000000" stroke-width="8" stroke-linecap="round" stroke-linejoin="round" d="M 32.999836 67.999969 L 41.000141 45.000061"/>
        <path id="path2" fill="none" stroke="#000000" stroke-width="10" stroke-linecap="round" stroke-linejoin="round" d="M 38.999989 45.999851 L 15.000002 47.000023"/>
        <path id="path3" fill="none" stroke="#000000" stroke-width="14" stroke-linecap="round" stroke-linejoin="round" d="M 25.999922 29.99995 L 15.999873 44.999912"/>
        <path id="Shape" fill="#000000" fill-rule="evenodd" stroke="#000000" stroke-width="0.5" stroke-linecap="round" stroke-linejoin="round" d="M 42.463425 9.5 C 42.463425 4.80558 38.657845 1 33.963425 1 C 29.269005 1 25.463425 4.80558 25.463425 9.5 C 25.463425 14.19442 29.269005 18 33.963425 18 C 38.657845 18 42.463425 14.19442 42.463425 9.5 Z"/>
    </g>
</svg>
]]>
 <g id="Notes">
  <rect height="2200" id="artboard" style="fill:white;opacity:1" width="3300" x="0" y="0"/>
  <line id="" style="fill:none;stroke:black;opacity:1;stroke-width:0.5;" x1="263" x2="3036" y1="292" y2="292"/>
  <text id="reftext1" style="stroke:none;fill:black;font-family:-apple-system,&quot;SF Pro Display&quot;,&quot;SF Pro Text&quot;,Helvetica,sans-serif;font-weight:bold;" transform="matrix(1 0 0 1 263 322)">Weight/Scale Variations</text>
  <text id="reftext2" style="stroke:none;fill:black;font-family:-apple-system,&quot;SF Pro Display&quot;,&quot;SF Pro Text&quot;,Helvetica,sans-serif;text-anchor:middle;" transform="matrix(1 0 0 1 559.711 322)">Ultralight</text>
  <text style="stroke:none;fill:black;font-family:-apple-system,&quot;SF Pro Display&quot;,&quot;SF Pro Text&quot;,Helvetica,sans-serif;text-anchor:middle;" transform="matrix(1 0 0 1 856.422 322)">Thin</text>
  <text style="stroke:none;fill:black;font-family:-apple-system,&quot;SF Pro Display&quot;,&quot;SF Pro Text&quot;,Helvetica,sans-serif;text-anchor:middle;" transform="matrix(1 0 0 1 1153.13 322)">Light</text>
  <text style="stroke:none;fill:black;font-family:-apple-system,&quot;SF Pro Display&quot;,&quot;SF Pro Text&quot;,Helvetica,sans-serif;text-anchor:middle;" transform="matrix(1 0 0 1 1449.84 322)">Regular</text>
  <text style="stroke:none;fill:black;font-family:-apple-system,&quot;SF Pro Display&quot;,&quot;SF Pro Text&quot;,Helvetica,sans-serif;text-anchor:middle;" transform="matrix(1 0 0 1 1746.56 322)">Medium</text>
  <text style="stroke:none;fill:black;font-family:-apple-system,&quot;SF Pro Display&quot;,&quot;SF Pro Text&quot;,Helvetica,sans-serif;text-anchor:middle;" transform="matrix(1 0 0 1 2043.27 322)">Semibold</text>
  <text style="stroke:none;fill:black;font-family:-apple-system,&quot;SF Pro Display&quot;,&quot;SF Pro Text&quot;,Helvetica,sans-serif;text-anchor:middle;" transform="matrix(1 0 0 1 2339.98 322)">Bold</text>
  <text style="stroke:none;fill:black;font-family:-apple-system,&quot;SF Pro Display&quot;,&quot;SF Pro Text&quot;,Helvetica,sans-serif;text-anchor:middle;" transform="matrix(1 0 0 1 2636.69 322)">Heavy</text>
  <text style="stroke:none;fill:black;font-family:-apple-system,&quot;SF Pro Display&quot;,&quot;SF Pro Text&quot;,Helvetica,sans-serif;text-anchor:middle;" transform="matrix(1 0 0 1 2933.4 322)">Black</text>
  <line id="" style="fill:none;stroke:black;opacity:1;stroke-width:0.5;" x1="263" x2="3036" y1="1903" y2="1903"/>
  <g id="" transform="matrix(1 0 0 1 263 1933)">
   <path d="M9.24805 0.830078C13.5547 0.830078 17.1387-2.74414 17.1387-7.05078C17.1387-11.3574 13.5449-14.9316 9.23828-14.9316C4.94141-14.9316 1.36719-11.3574 1.36719-7.05078C1.36719-2.74414 4.95117 0.830078 9.24805 0.830078ZM9.24805-0.654297C5.70312-0.654297 2.87109-3.49609 2.87109-7.05078C2.87109-10.6055 5.69336-13.4473 9.23828-13.4473C12.793-13.4473 15.6348-10.6055 15.6445-7.05078C15.6543-3.49609 12.8027-0.654297 9.24805-0.654297ZM6.39648-6.31836L8.50586-6.31836L8.50586-4.19922C8.50586-3.75977 8.79883-3.45703 9.22852-3.45703C9.67773-3.45703 9.9707-3.75977 9.9707-4.19922L9.9707-6.31836L12.0996-6.31836C12.5391-6.31836 12.8418-6.61133 12.8418-7.04102C12.8418-7.48047 12.5391-7.7832 12.0996-7.7832L9.9707-7.7832L9.9707-9.89258C9.9707-10.3418 9.67773-10.6445 9.22852-10.6445C8.79883-10.6445 8.50586-10.3418 8.50586-9.89258L8.50586-7.7832L6.39648-7.7832C5.94727-7.7832 5.64453-7.48047 5.64453-7.04102C5.64453-6.61133 5.94727-6.31836 6.39648-6.31836Z"/>
  </g>
  <g id="" transform="matrix(1 0 0 1 281.506 1933)">
   <path d="M11.709 2.91016C17.1582 2.91016 21.6699-1.61133 21.6699-7.05078C21.6699-12.5 17.1484-17.0117 11.6992-17.0117C6.25977-17.0117 1.74805-12.5 1.74805-7.05078C1.74805-1.61133 6.26953 2.91016 11.709 2.91016ZM11.709 1.25C7.09961 1.25 3.41797-2.44141 3.41797-7.05078C3.41797-11.6602 7.08984-15.3516 11.6992-15.3516C16.3086-15.3516 20-11.6602 20.0098-7.05078C20.0195-2.44141 16.3184 1.25 11.709 1.25ZM7.98828-6.23047L10.8789-6.23047L10.8789-3.32031C10.8789-2.83203 11.2109-2.5 11.6895-2.5C12.1777-2.5 12.5195-2.83203 12.5195-3.32031L12.5195-6.23047L15.4297-6.23047C15.918-6.23047 16.25-6.5625 16.25-7.04102C16.25-7.5293 15.918-7.87109 15.4297-7.87109L12.5195-7.87109L12.5195-10.7617C12.5195-11.2695 12.1777-11.6016 11.6895-11.6016C11.2109-11.6016 10.8789-11.2598 10.8789-10.7617L10.8789-7.87109L7.98828-7.87109C7.48047-7.87109 7.14844-7.5293 7.14844-7.04102C7.14844-6.5625 7.49023-6.23047 7.98828-6.23047Z"/>
  </g>
  <g id="" transform="matrix(1 0 0 1 304.924 1933)">
   <path d="M14.9707 5.66406C21.9336 5.66406 27.6953-0.0976562 27.6953-7.05078C27.6953-14.0137 21.9238-19.7754 14.9609-19.7754C8.00781-19.7754 2.25586-14.0137 2.25586-7.05078C2.25586-0.0976562 8.01758 5.66406 14.9707 5.66406ZM14.9707 3.84766C8.93555 3.84766 4.08203-1.01562 4.08203-7.05078C4.08203-13.0957 8.92578-17.9492 14.9609-17.9492C21.0059-17.9492 25.8594-13.0957 25.8691-7.05078C25.8789-1.01562 21.0156 3.84766 14.9707 3.84766ZM10.0586-6.14258L14.0625-6.14258L14.0625-2.12891C14.0625-1.5918 14.4336-1.2207 14.9512-1.2207C15.4883-1.2207 15.8594-1.5918 15.8594-2.12891L15.8594-6.14258L19.8828-6.14258C20.4102-6.14258 20.791-6.51367 20.791-7.03125C20.791-7.56836 20.4199-7.94922 19.8828-7.94922L15.8594-7.94922L15.8594-11.9531C15.8594-12.5098 15.4883-12.8809 14.9512-12.8809C14.4336-12.8809 14.0625-12.5 14.0625-11.9531L14.0625-7.94922L10.0586-7.94922C9.50195-7.94922 9.13086-7.56836 9.13086-7.03125C9.13086-6.51367 9.51172-6.14258 10.0586-6.14258Z"/>
  </g>
  <text style="stroke:none;fill:black;font-family:-apple-system,&quot;SF Pro Display&quot;,&quot;SF Pro Text&quot;,Helvetica,sans-serif;font-weight:bold;" transform="matrix(1 0 0 1 263 1953)">Design Variations</text>
  <text style="stroke:none;fill:black;font-family:-apple-system,&quot;SF Pro Display&quot;,&quot;SF Pro Text&quot;,Helvetica,sans-serif;" transform="matrix(1 0 0 1 263 1971)">Symbols are supported in up to nine weights and three scales.</text>
  <text style="stroke:none;fill:black;font-family:-apple-system,&quot;SF Pro Display&quot;,&quot;SF Pro Text&quot;,Helvetica,sans-serif;" transform="matrix(1 0 0 1 263 1989)">For optimal layout with text and other symbols, vertically align</text>
  <text style="stroke:none;fill:black;font-family:-apple-system,&quot;SF Pro Display&quot;,&quot;SF Pro Text&quot;,Helvetica,sans-serif;" transform="matrix(1 0 0 1 263 2007)">symbols with the adjacent text.</text>
  <line id="" style="fill:none;stroke:#00AEEF;stroke-width:0.5;opacity:1.0;" x1="776" x2="776" y1="1919" y2="1933"/>
  <g id="" transform="matrix(1 0 0 1 776 1933)">
   <path d="M3.31055 0.126953C3.82812 0.126953 4.08203-0.0683594 4.26758-0.605469L5.52734-4.0625L11.2891-4.0625L12.5488-0.605469C12.7344-0.0683594 12.9883 0.126953 13.4961 0.126953C14.0137 0.126953 14.3457-0.185547 14.3457-0.673828C14.3457-0.839844 14.3164-0.986328 14.2383-1.20117L9.6582-13.3887C9.43359-13.9941 9.0332-14.2871 8.4082-14.2871C7.80273-14.2871 7.39258-13.9941 7.17773-13.3984L2.59766-1.19141C2.51953-0.976562 2.49023-0.830078 2.49023-0.664062C2.49023-0.175781 2.80273 0.126953 3.31055 0.126953ZM6.00586-5.53711L8.37891-12.1094L8.42773-12.1094L10.8008-5.53711Z"/>
  </g>
  <line id="" style="fill:none;stroke:#00AEEF;stroke-width:0.5;opacity:1.0;" x1="792.836" x2="792.836" y1="1919" y2="1933"/>
  <text style="stroke:none;fill:black;font-family:-apple-system,&quot;SF Pro Display&quot;,&quot;SF Pro Text&quot;,Helvetica,sans-serif;font-weight:bold;" transform="matrix(1 0 0 1 776 1953)">Margins</text>
  <text style="stroke:none;fill:black;font-family:-apple-system,&quot;SF Pro Display&quot;,&quot;SF Pro Text&quot;,Helvetica,sans-serif;" transform="matrix(1 0 0 1 776 1971)">Leading and trailing margins on the left and right side of each symbol</text>
  <text style="stroke:none;fill:black;font-family:-apple-system,&quot;SF Pro Display&quot;,&quot;SF Pro Text&quot;,Helvetica,sans-serif;" transform="matrix(1 0 0 1 776 1989)">can be adjusted by modifying the x-location of the margin guidelines.</text>
  <text style="stroke:none;fill:black;font-family:-apple-system,&quot;SF Pro Display&quot;,&quot;SF Pro Text&quot;,Helvetica,sans-serif;" transform="matrix(1 0 0 1 776 2007)">Modifications are automatically applied proportionally to all</text>
  <text style="stroke:none;fill:black;font-family:-apple-system,&quot;SF Pro Display&quot;,&quot;SF Pro Text&quot;,Helvetica,sans-serif;" transform="matrix(1 0 0 1 776 2025)">scales and weights.</text>
  <g id="" transform="matrix(1 0 0 1 1289 1933)">
   <path d="M2.8418 1.86523L4.54102 3.57422C5.40039 4.44336 6.38672 4.38477 7.31445 3.35938L17.4902-7.85156C17.7539-7.76367 18.0273-7.7832 18.3398-7.8418L19.4043-8.03711L20.0684-7.36328L20.0293-6.80664C19.9902-6.30859 20.1172-5.92773 20.6055-5.44922L21.3672-4.70703C21.8457-4.22852 22.4609-4.19922 22.9297-4.66797L25.8398-7.58789C26.3086-8.05664 26.2891-8.65234 25.8105-9.13086L25.0391-9.89258C24.5605-10.3711 24.1895-10.5273 23.7109-10.4883L23.1348-10.4395L22.4902-11.0742L22.7344-12.1973C22.8613-12.7637 22.7051-13.2031 22.1191-13.7891L19.9219-15.9766C16.582-19.2969 12.1484-19.2188 9.25781-16.3281C8.83789-15.918 8.80859-15.3418 9.04297-14.9512C9.27734-14.5898 9.73633-14.3555 10.3809-14.5215C11.8457-14.8633 13.3691-14.9219 14.7949-13.9844L14.209-12.5293C14.0137-12.0508 13.9844-11.6504 14.1113-11.2891L3.04688-0.898438C2.06055 0.0195312 1.98242 0.996094 2.8418 1.86523ZM10.752-15.957C13.1836-17.7344 16.4746-17.4316 18.7012-15.2051L21.1328-12.793C21.3672-12.5586 21.4062-12.373 21.3379-12.0312L21.0156-10.5469L22.5195-9.0625L23.5059-9.12109C23.7598-9.13086 23.8379-9.11133 24.0332-8.91602L24.6094-8.33984L22.168-5.89844L21.5918-6.47461C21.3965-6.66992 21.3672-6.74805 21.377-7.01172L21.4453-7.98828L19.9512-9.47266L18.4277-9.21875C18.1055-9.15039 17.959-9.17969 17.7148-9.41406L15.7129-11.416C15.459-11.6504 15.4297-11.8164 15.5859-12.1875L16.4648-14.2773C14.9023-15.7324 12.8711-16.3574 10.8398-15.7617C10.6836-15.7227 10.625-15.8496 10.752-15.957ZM5.27344 2.30469L4.10156 1.14258C3.63281 0.683594 3.74023 0.341797 4.14062-0.0195312L14.9512-10.1953L16.416-8.71094L6.42578 2.27539C6.07422 2.67578 5.74219 2.77344 5.27344 2.30469Z"/>
  </g>
  <text style="stroke:none;fill:black;font-family:-apple-system,&quot;SF Pro Display&quot;,&quot;SF Pro Text&quot;,Helvetica,sans-serif;font-weight:bold;" transform="matrix(1 0 0 1 1289 1953)">Exporting</text>
  <text style="stroke:none;fill:black;font-family:-apple-system,&quot;SF Pro Display&quot;,&quot;SF Pro Text&quot;,Helvetica,sans-serif;" transform="matrix(1 0 0 1 1289 1971)">Symbols should be outlined when exporting to ensure the</text>
  <text style="stroke:none;fill:black;font-family:-apple-system,&quot;SF Pro Display&quot;,&quot;SF Pro Text&quot;,Helvetica,sans-serif;" transform="matrix(1 0 0 1 1289 1989)">design is preserved when submitting to Xcode.</text>
  <text id="template-version" style="stroke:none;fill:black;font-family:-apple-system,&quot;SF Pro Display&quot;,&quot;SF Pro Text&quot;,Helvetica,sans-serif;text-anchor:end;" transform="matrix(1 0 0 1 3036 1933)">Template v.2.0</text>
  <text style="stroke:none;fill:black;font-family:-apple-system,&quot;SF Pro Display&quot;,&quot;SF Pro Text&quot;,Helvetica,sans-serif;text-anchor:end;" transform="matrix(1 0 0 1 3036 1951)">Requires Xcode 12 or greater</text>
  <text style="stroke:none;fill:black;font-family:-apple-system,&quot;SF Pro Display&quot;,&quot;SF Pro Text&quot;,Helvetica,sans-serif;" transform="matrix(1 0 0 1 263 726)">Small</text>
  <text style="stroke:none;fill:black;font-family:-apple-system,&quot;SF Pro Display&quot;,&quot;SF Pro Text&quot;,Helvetica,sans-serif;" transform="matrix(1 0 0 1 263 1156)">Medium</text>
  <text style="stroke:none;fill:black;font-family:-apple-system,&quot;SF Pro Display&quot;,&quot;SF Pro Text&quot;,Helvetica,sans-serif;" transform="matrix(1 0 0 1 263 1586)">Large</text>
 </g>
 <g id="Guides">
  <g id="H-reference" style="fill:#27AAE1;stroke:none;" transform="matrix(1 0 0 1 339 696)">
   <path d="M0.976562 0L3.66211 0L12.9883-24.4629L45.752-24.4629L55.127 0L57.7637 0L30.6152-70.459L28.125-70.459ZM29.3457-67.1387L29.4434-67.1387L44.873-26.709L13.8672-26.709Z"/>
  </g>
  <line id="Baseline-S" style="fill:none;stroke:#27AAE1;opacity:1;stroke-width:0.5;" x1="263" x2="3036" y1="696" y2="696"/>
  <line id="Capline-S" style="fill:none;stroke:#27AAE1;opacity:1;stroke-width:0.5;" x1="263" x2="3036" y1="625.541" y2="625.541"/>
  <g id="H-reference" style="fill:#27AAE1;stroke:none;" transform="matrix(1 0 0 1 339 1126)">
   <path d="M0.976562 0L3.66211 0L12.9883-24.4629L45.752-24.4629L55.127 0L57.7637 0L30.6152-70.459L28.125-70.459ZM29.3457-67.1387L29.4434-67.1387L44.873-26.709L13.8672-26.709Z"/>
  </g>
  <line id="Baseline-M" style="fill:none;stroke:#27AAE1;opacity:1;stroke-width:0.5;" x1="263" x2="3036" y1="1126" y2="1126"/>
  <line id="Capline-M" style="fill:none;stroke:#27AAE1;opacity:1;stroke-width:0.5;" x1="263" x2="3036" y1="1055.54" y2="1055.54"/>
  <g id="H-reference" style="fill:#27AAE1;stroke:none;" transform="matrix(1 0 0 1 339 1556)">
   <path d="M0.976562 0L3.66211 0L12.9883-24.4629L45.752-24.4629L55.127 0L57.7637 0L30.6152-70.459L28.125-70.459ZM29.3457-67.1387L29.4434-67.1387L44.873-26.709L13.8672-26.709Z"/>
  </g>
  <line id="Baseline-L" style="fill:none;stroke:#27AAE1;opacity:1;stroke-width:0.5;" x1="263" x2="3036" y1="1556" y2="1556"/>
  <line id="Capline-L" style="fill:none;stroke:#27AAE1;opacity:1;stroke-width:0.5;" x1="263" x2="3036" y1="1485.54" y2="1485.54"/>
  <line id="left-margin" x1="1409.5072777650948" x2="1409.5072777650948" y1="1030.79" y2="1150.12" style="fill:none;stroke:#00AEEF;stroke-width:0.5;opacity:1.0;"/>
  <line id="right-margin" x1="1506.3092322757898" x2="1506.3092322757898" y1="1030.79" y2="1150.12" style="fill:none;stroke:#00AEEF;stroke-width:0.5;opacity:1.0;"/>
 </g>
 <g id="Symbols">
  <g id="Black-L" transform="matrix(1.0,0.0,0.0,1.0,2866.3678986221025,1453.8624149576824)">  <path stroke-linecap="round" stroke-width="9px" stroke-dasharray="none" fill-opacity="1" stroke-opacity="1" fill-rule="nonzero" fill="#000000" stroke-linejoin="round" stroke="none" stroke-miterlimit="4" d="M116.586,31.068L47.363,31.069C37.358,31.069,29.247,39.18,29.247,49.185C29.247,59.19,37.358,67.301,47.363,67.301L116.586,67.301C126.591,67.301,134.702,59.19,134.702,49.185C134.702,39.179,126.591,31.068,116.586,31.068Z"/>
  <path stroke-linejoin="round" fill-rule="nonzero" stroke="none" stroke-miterlimit="4" fill-opacity="1" stroke-width="8px" stroke-linecap="round" stroke-dasharray="none" stroke-opacity="1" fill="#000000" d="M75.324,129.163L89.898,87.265C92.82,78.865,88.379,69.687,79.979,66.765C71.579,63.843,62.4,68.284,59.479,76.684L44.905,118.582C41.983,126.982,46.424,136.16,54.824,139.082C63.224,142.004,72.402,137.563,75.324,129.163Z"/>
  <path stroke-linejoin="round" stroke-linecap="round" stroke="none" stroke-miterlimit="4" stroke-dasharray="none" stroke-width="10px" fill="#000000" stroke-opacity="1" fill-rule="nonzero" fill-opacity="1" d="M70.206,63.684L26.487,65.506C15.379,65.969,6.75,75.349,7.213,86.456C7.676,97.563,17.056,106.193,28.163,105.73L71.883,103.908C82.99,103.445,91.619,94.065,91.156,82.958C90.694,71.85,81.314,63.221,70.206,63.684Z"/>
  <path stroke-miterlimit="4" stroke-dasharray="none" fill-rule="nonzero" stroke-opacity="1" stroke="none" fill-opacity="1" stroke-linejoin="round" stroke-linecap="round" fill="#000000" stroke-width="14px" d="M23.915,39.017L5.698,66.342C-2.935,79.292,0.564,96.789,13.514,105.422C26.464,114.056,43.961,110.556,52.594,97.606L70.811,70.282C79.444,57.332,75.945,39.835,62.995,31.202C50.045,22.568,32.548,26.068,23.915,39.017Z"/>
  <path fill="#000000" fill-rule="evenodd" fill-opacity="1" stroke-opacity="1" stroke-miterlimit="4" stroke-dasharray="none" stroke-linecap="round" stroke="none" stroke-linejoin="round" stroke-width="0.5px" d="M77.354,17.306C77.354,8.754,70.421,1.822,61.87,1.822C53.318,1.822,46.386,8.754,46.386,17.306C46.386,25.857,53.318,32.79,61.87,32.79C70.421,32.79,77.354,25.857,77.354,17.306ZM77.354,17.306"/>
  <path stroke-dasharray="none" stroke-opacity="1" stroke-linecap="round" stroke="none" stroke-width="0.5px" fill-rule="nonzero" fill="#000000" stroke-linejoin="round" fill-opacity="1" stroke-miterlimit="4" d="M78.36,17.306C78.36,8.198,70.977,0.815,61.87,0.815C52.762,0.815,45.379,8.198,45.379,17.306C45.379,26.413,52.762,33.796,61.87,33.796C70.977,33.796,78.36,26.413,78.36,17.306ZM76.347,17.306C76.347,25.301,69.865,31.783,61.87,31.783C53.874,31.783,47.392,25.301,47.392,17.306C47.392,9.31,53.874,2.828,61.87,2.828C69.865,2.828,76.347,9.31,76.347,17.306Z"/>
</g>
  <g id="Heavy-L" transform="matrix(1.0,0.0,0.0,1.0,2569.6578986221025,1453.8624149576824)">  <path fill-rule="nonzero" stroke-opacity="1" stroke-linecap="round" fill-opacity="1" stroke-miterlimit="4" stroke-dasharray="none" stroke-linejoin="round" fill="#000000" stroke-width="9px" stroke="none" d="M116.586,33.052L47.363,33.052C38.453,33.052,31.23,40.275,31.23,49.185C31.231,58.095,38.453,65.318,47.363,65.318L116.586,65.317C125.496,65.317,132.719,58.094,132.719,49.185C132.719,40.275,125.496,33.052,116.586,33.052Z"/>
  <path stroke-width="8px" stroke-dasharray="none" fill="#000000" stroke-miterlimit="4" stroke="none" stroke-linecap="round" stroke-linejoin="round" stroke-opacity="1" fill-opacity="1" fill-rule="nonzero" d="M73.658,128.584L88.232,86.686C90.834,79.206,86.88,71.032,79.399,68.431C71.919,65.829,63.746,69.783,61.144,77.263L46.57,119.161C43.968,126.642,47.923,134.815,55.403,137.417C62.883,140.019,71.057,136.064,73.658,128.584Z"/>
  <path stroke="none" stroke-dasharray="none" stroke-linecap="round" fill-rule="nonzero" stroke-opacity="1" stroke-width="10px" fill-opacity="1" stroke-linejoin="round" fill="#000000" stroke-miterlimit="4" d="M70.298,65.886L26.578,67.708C16.687,68.121,9.003,76.473,9.415,86.364C9.827,96.255,18.18,103.94,28.071,103.527L71.791,101.705C81.682,101.293,89.366,92.941,88.954,83.05C88.542,73.158,80.189,65.474,70.298,65.886Z"/>
  <path stroke-dasharray="none" stroke-miterlimit="4" stroke-width="14px" fill="#000000" fill-rule="nonzero" stroke-opacity="1" stroke-linejoin="round" stroke-linecap="round" stroke="none" fill-opacity="1" d="M26.483,40.729L8.266,68.054C0.578,79.586,3.694,95.167,15.226,102.855C26.758,110.543,42.339,107.427,50.027,95.895L68.243,68.57C75.931,57.038,72.815,41.457,61.283,33.769C49.751,26.081,34.171,29.197,26.483,40.729Z"/>
  <path stroke-miterlimit="4" stroke-linecap="round" stroke="none" fill-opacity="1" stroke-opacity="1" stroke-linejoin="round" fill="#000000" stroke-width="0.5px" stroke-dasharray="none" fill-rule="evenodd" d="M77.354,17.306C77.354,8.754,70.421,1.822,61.87,1.822C53.318,1.822,46.386,8.754,46.386,17.306C46.386,25.857,53.318,32.79,61.87,32.79C70.421,32.79,77.354,25.857,77.354,17.306ZM77.354,17.306"/>
  <path fill-rule="nonzero" stroke-linejoin="round" stroke="none" stroke-opacity="1" fill="#000000" stroke-width="0.5px" stroke-linecap="round" fill-opacity="1" stroke-dasharray="none" stroke-miterlimit="4" d="M78.25,17.306C78.25,8.259,70.916,0.925,61.87,0.925C52.823,0.925,45.489,8.259,45.489,17.306C45.489,26.352,52.823,33.686,61.87,33.686C70.916,33.686,78.25,26.352,78.25,17.306ZM76.457,17.306C76.457,25.362,69.926,31.894,61.87,31.894C53.813,31.894,47.282,25.362,47.282,17.306C47.282,9.249,53.813,2.718,61.87,2.718C69.926,2.718,76.457,9.249,76.457,17.306Z"/>
</g>
  <g id="Bold-L" transform="matrix(1.0,0.0,0.0,1.0,2272.9478986221025,1453.8624149576824)">  <path stroke="none" fill-opacity="1" stroke-linecap="round" stroke-miterlimit="4" stroke-linejoin="round" stroke-width="9px" fill="#000000" fill-rule="nonzero" stroke-dasharray="none" stroke-opacity="1" d="M116.586,35.036L47.363,35.036C39.549,35.036,33.214,41.371,33.214,49.185C33.214,56.999,39.549,63.334,47.363,63.334L116.586,63.334C124.4,63.334,130.735,56.999,130.735,49.185C130.735,41.371,124.4,35.036,116.586,35.036Z"/>
  <path stroke="none" stroke-opacity="1" fill="#000000" stroke-linecap="round" stroke-linejoin="round" fill-opacity="1" stroke-miterlimit="4" stroke-dasharray="none" fill-rule="nonzero" stroke-width="8px" d="M71.993,128.004L86.567,86.106C88.849,79.546,85.38,72.378,78.82,70.096C72.26,67.814,65.092,71.282,62.81,77.843L48.236,119.741C45.954,126.301,49.422,133.469,55.982,135.751C62.543,138.033,69.711,134.565,71.993,128.004Z"/>
  <path stroke-opacity="1" fill-rule="nonzero" fill-opacity="1" stroke-linecap="round" stroke="none" stroke-miterlimit="4" stroke-width="10px" stroke-linejoin="round" stroke-dasharray="none" fill="#000000" d="M70.39,68.089L26.67,69.911C17.995,70.272,11.256,77.598,11.618,86.272C11.979,94.947,19.305,101.687,27.979,101.325L71.699,99.503C80.374,99.142,87.113,91.816,86.752,83.141C86.39,74.466,79.065,67.727,70.39,68.089Z"/>
  <path stroke-opacity="1" stroke="none" fill="#000000" stroke-dasharray="none" fill-opacity="1" stroke-miterlimit="4" fill-rule="nonzero" stroke-linejoin="round" stroke-linecap="round" stroke-width="14px" d="M29.05,42.441L10.834,69.766C4.091,79.88,6.824,93.544,16.938,100.287C27.052,107.03,40.716,104.297,47.459,94.183L65.676,66.858C72.418,56.744,69.685,43.079,59.572,36.337C49.458,29.594,35.793,32.327,29.05,42.441Z"/>
  <path stroke-opacity="1" stroke-linecap="round" stroke-linejoin="round" stroke-miterlimit="4" fill="#000000" stroke-width="0.5px" stroke="none" stroke-dasharray="none" fill-rule="evenodd" fill-opacity="1" d="M77.354,17.306C77.354,8.754,70.421,1.822,61.87,1.822C53.318,1.822,46.386,8.754,46.386,17.306C46.386,25.857,53.318,32.79,61.87,32.79C70.421,32.79,77.354,25.857,77.354,17.306ZM77.354,17.306"/>
  <path stroke-linecap="round" fill="#000000" fill-rule="nonzero" stroke-width="0.5px" stroke-opacity="1" stroke-miterlimit="4" stroke-linejoin="round" stroke="none" stroke-dasharray="none" fill-opacity="1" d="M78.14,17.306C78.14,8.32,70.855,1.036,61.87,1.036C52.884,1.036,45.6,8.32,45.6,17.306C45.6,26.291,52.884,33.576,61.87,33.576C70.855,33.576,78.14,26.291,78.14,17.306ZM76.568,17.306C76.568,25.423,69.987,32.004,61.87,32.004C53.752,32.004,47.172,25.423,47.172,17.306C47.172,9.188,53.752,2.608,61.87,2.608C69.987,2.608,76.568,9.188,76.568,17.306Z"/>
</g>
  <g id="Semibold-L" transform="matrix(1.0,0.0,0.0,1.0,1976.2378986221026,1453.8624149576824)">  <path stroke="none" stroke-opacity="1" fill="#000000" stroke-dasharray="none" stroke-linecap="round" stroke-miterlimit="4" fill-opacity="1" fill-rule="nonzero" stroke-linejoin="round" stroke-width="9px" d="M116.586,37.02L47.363,37.02C40.644,37.02,35.198,42.467,35.198,49.185C35.198,55.904,40.645,61.35,47.363,61.35L116.586,61.35C123.305,61.35,128.751,55.903,128.751,49.185C128.751,42.466,123.304,37.02,116.586,37.02Z"/>
  <path stroke-miterlimit="4" fill="#000000" stroke-opacity="1" stroke-width="8px" stroke-linejoin="round" stroke-dasharray="none" stroke="none" stroke-linecap="round" fill-opacity="1" fill-rule="nonzero" d="M70.327,127.425L84.901,85.527C86.863,79.887,83.881,73.724,78.241,71.762C72.6,69.799,66.437,72.782,64.475,78.422L49.901,120.32C47.939,125.961,50.921,132.124,56.562,134.086C62.202,136.048,68.365,133.066,70.327,127.425Z"/>
  <path fill-opacity="1" stroke-width="10px" stroke-linecap="round" fill-rule="nonzero" stroke="none" stroke-linejoin="round" stroke-miterlimit="4" stroke-dasharray="none" stroke-opacity="1" fill="#000000" d="M70.482,70.291L26.762,72.113C19.303,72.424,13.509,78.722,13.82,86.181C14.131,93.639,20.429,99.434,27.888,99.123L71.607,97.301C79.066,96.99,84.86,90.692,84.55,83.233C84.239,75.775,77.94,69.98,70.482,70.291Z"/>
  <path stroke-dasharray="none" stroke-linecap="round" stroke-width="14px" stroke-opacity="1" stroke-miterlimit="4" stroke-linejoin="round" fill-opacity="1" fill="#000000" fill-rule="nonzero" stroke="none" d="M31.618,44.153L13.401,71.478C7.604,80.173,9.954,91.922,18.649,97.72C27.345,103.517,39.094,101.167,44.891,92.471L63.108,65.146C68.905,56.451,66.556,44.702,57.86,38.904C49.164,33.107,37.415,35.457,31.618,44.153Z"/>
  <path stroke-linecap="round" stroke-width="0.5px" fill-rule="evenodd" stroke-miterlimit="4" stroke="none" stroke-opacity="1" stroke-linejoin="round" fill="#000000" fill-opacity="1" stroke-dasharray="none" d="M77.354,17.306C77.354,8.754,70.421,1.822,61.87,1.822C53.318,1.822,46.386,8.754,46.386,17.306C46.386,25.857,53.318,32.79,61.87,32.79C70.421,32.79,77.354,25.857,77.354,17.306ZM77.354,17.306"/>
  <path stroke-linecap="round" fill-rule="nonzero" stroke-linejoin="round" stroke-opacity="1" fill-opacity="1" stroke-miterlimit="4" stroke-dasharray="none" stroke-width="0.5px" fill="#000000" stroke="none" d="M78.03,17.306C78.03,8.381,70.795,1.146,61.87,1.146C52.945,1.146,45.71,8.381,45.71,17.306C45.71,26.231,52.945,33.466,61.87,33.466C70.795,33.466,78.03,26.231,78.03,17.306ZM76.678,17.306C76.678,25.484,70.048,32.114,61.87,32.114C53.691,32.114,47.061,25.484,47.061,17.306C47.061,9.127,53.691,2.497,61.87,2.497C70.048,2.497,76.678,9.127,76.678,17.306Z"/>
</g>
  <g id="Medium-L" transform="matrix(1.0,0.0,0.0,1.0,1679.5278986221026,1453.8624149576824)">  <path stroke-linecap="round" stroke-miterlimit="4" fill="#000000" fill-rule="nonzero" stroke-linejoin="round" stroke-dasharray="none" fill-opacity="1" stroke="none" stroke-opacity="1" stroke-width="9px" d="M116.586,39.004L47.363,39.004C41.74,39.004,37.182,43.562,37.182,49.185C37.182,54.808,41.74,59.366,47.363,59.366L116.586,59.366C122.209,59.366,126.767,54.808,126.767,49.185C126.767,43.562,122.209,39.003,116.586,39.004Z"/>
  <path stroke-linecap="round" fill="#000000" stroke="none" stroke-miterlimit="4" fill-opacity="1" fill-rule="nonzero" stroke-dasharray="none" stroke-opacity="1" stroke-linejoin="round" stroke-width="8px" d="M68.662,126.846L83.236,84.948C84.878,80.227,82.382,75.069,77.661,73.427C72.941,71.785,67.783,74.281,66.141,79.001L51.567,120.899C49.925,125.62,52.42,130.778,57.141,132.42C61.862,134.062,67.02,131.567,68.662,126.846Z"/>
  <path stroke-linecap="round" stroke-miterlimit="4" stroke-linejoin="round" stroke-opacity="1" stroke-width="10px" fill-rule="nonzero" fill="#000000" fill-opacity="1" stroke="none" stroke-dasharray="none" d="M70.574,72.493L26.854,74.315C20.612,74.575,15.762,79.847,16.022,86.089C16.282,92.331,21.554,97.181,27.796,96.921L71.516,95.099C77.758,94.838,82.607,89.567,82.347,83.325C82.087,77.083,76.816,72.233,70.574,72.493Z"/>
  <path stroke-linejoin="round" stroke-miterlimit="4" fill-rule="nonzero" stroke="none" fill="#000000" stroke-dasharray="none" stroke-width="14px" stroke-opacity="1" fill-opacity="1" stroke-linecap="round" d="M34.185,45.864L15.969,73.189C11.117,80.467,13.083,90.3,20.361,95.152C27.639,100.004,37.472,98.037,42.324,90.759L60.54,63.435C65.392,56.157,63.426,46.324,56.148,41.472C48.87,36.62,39.037,38.587,34.185,45.864Z"/>
  <path fill-opacity="1" stroke-width="0.5px" stroke-dasharray="none" fill-rule="evenodd" stroke="none" stroke-opacity="1" stroke-linecap="round" fill="#000000" stroke-linejoin="round" stroke-miterlimit="4" d="M77.354,17.306C77.354,8.754,70.421,1.822,61.87,1.822C53.318,1.822,46.386,8.754,46.386,17.306C46.386,25.857,53.318,32.79,61.87,32.79C70.421,32.79,77.354,25.857,77.354,17.306ZM77.354,17.306"/>
  <path fill="#000000" stroke-linecap="round" fill-rule="nonzero" stroke="none" stroke-opacity="1" stroke-dasharray="none" stroke-linejoin="round" stroke-miterlimit="4" fill-opacity="1" stroke-width="0.5px" d="M77.919,17.306C77.919,8.442,70.734,1.256,61.87,1.256C53.006,1.256,45.82,8.442,45.82,17.306C45.82,26.17,53.006,33.355,61.87,33.355C70.734,33.355,77.919,26.17,77.919,17.306ZM76.788,17.306C76.788,25.545,70.109,32.224,61.87,32.224C53.63,32.224,46.951,25.545,46.951,17.306C46.951,9.066,53.63,2.387,61.87,2.387C70.109,2.387,76.788,9.066,76.788,17.306Z"/>
</g>
  <g id="Regular-L" transform="matrix(1.0,0.0,0.0,1.0,1382.8178986221026,1453.8624149576824)">  <path stroke="none" stroke-opacity="1" stroke-width="9px" fill-rule="nonzero" stroke-miterlimit="4" fill-opacity="1" stroke-linejoin="round" fill="#000000" stroke-linecap="round" stroke-dasharray="none" d="M116.586,40.987L47.363,40.988C42.836,40.988,39.166,44.658,39.166,49.185C39.166,53.712,42.836,57.382,47.363,57.382L116.586,57.382C121.113,57.382,124.783,53.712,124.783,49.185C124.783,44.657,121.113,40.987,116.586,40.987Z"/>
  <path fill="#000000" stroke-width="8px" stroke="none" stroke-opacity="1" stroke-linecap="round" fill-opacity="1" stroke-dasharray="none" stroke-linejoin="round" fill-rule="nonzero" stroke-miterlimit="4" d="M66.997,126.266L81.57,84.369C82.892,80.568,80.883,76.415,77.082,75.092C73.281,73.77,69.128,75.78,67.806,79.581L53.232,121.479C51.91,125.28,53.92,129.433,57.72,130.755C61.521,132.077,65.674,130.067,66.997,126.266Z"/>
  <path stroke-opacity="1" fill-rule="nonzero" stroke-dasharray="none" stroke-miterlimit="4" fill="#000000" stroke-linejoin="round" stroke="none" stroke-linecap="round" fill-opacity="1" stroke-width="10px" d="M70.665,74.696L26.946,76.517C21.92,76.727,18.015,80.971,18.224,85.997C18.434,91.023,22.678,94.928,27.704,94.718L71.424,92.896C76.45,92.687,80.354,88.443,80.145,83.417C79.935,78.391,75.691,74.486,70.665,74.696Z"/>
  <path fill-opacity="1" fill="#000000" stroke-linejoin="round" stroke-dasharray="none" stroke-linecap="round" stroke="none" stroke-opacity="1" fill-rule="nonzero" stroke-miterlimit="4" stroke-width="14px" d="M36.753,47.576L18.536,74.901C14.63,80.761,16.213,88.678,22.073,92.584C27.933,96.491,35.85,94.907,39.756,89.048L57.973,61.723C61.879,55.863,60.296,47.946,54.436,44.04C48.577,40.133,40.659,41.717,36.753,47.576Z"/>
  <path stroke="none" fill="#000000" fill-opacity="1" stroke-miterlimit="4" stroke-linejoin="round" stroke-dasharray="none" stroke-linecap="round" stroke-width="0.5px" fill-rule="evenodd" stroke-opacity="1" d="M77.354,17.306C77.354,8.754,70.421,1.822,61.87,1.822C53.318,1.822,46.386,8.754,46.386,17.306C46.386,25.857,53.318,32.79,61.87,32.79C70.421,32.79,77.354,25.857,77.354,17.306ZM77.354,17.306"/>
  <path stroke-linecap="round" fill="#000000" fill-rule="nonzero" stroke-miterlimit="4" stroke-dasharray="none" stroke-width="0.5px" stroke-opacity="1" fill-opacity="1" stroke-linejoin="round" stroke="none" d="M77.809,17.306C77.809,8.503,70.673,1.366,61.87,1.366C53.067,1.366,45.93,8.503,45.93,17.306C45.93,26.109,53.067,33.245,61.87,33.245C70.673,33.245,77.809,26.109,77.809,17.306ZM76.898,17.306C76.898,25.606,70.17,32.334,61.87,32.334C53.57,32.334,46.841,25.606,46.841,17.306C46.841,9.006,53.57,2.277,61.87,2.277C70.17,2.277,76.898,9.006,76.898,17.306Z"/>
</g>
  <g id="Light-L" transform="matrix(1.0,0.0,0.0,1.0,1086.1078986221028,1453.8624149576824)">  <path stroke-dasharray="none" stroke-width="9px" stroke-opacity="1" fill-rule="nonzero" stroke-linejoin="round" stroke="none" stroke-linecap="round" fill="#000000" fill-opacity="1" stroke-miterlimit="4" d="M116.586,42.354L47.363,42.354C43.59,42.354,40.532,45.412,40.532,49.185C40.532,52.958,43.59,56.016,47.363,56.016L116.586,56.016C120.359,56.016,123.417,52.957,123.417,49.185C123.417,45.412,120.359,42.354,116.586,42.354Z"/>
  <path stroke-linejoin="round" stroke-miterlimit="4" stroke-opacity="1" stroke-width="8px" fill-opacity="1" fill-rule="nonzero" fill="#000000" stroke-dasharray="none" stroke="none" stroke-linecap="round" d="M65.849,125.867L80.423,83.97C81.525,80.802,79.85,77.341,76.683,76.239C73.516,75.138,70.055,76.812,68.953,79.98L54.379,121.878C53.277,125.045,54.952,128.506,58.119,129.608C61.287,130.709,64.748,129.035,65.849,125.867Z"/>
  <path stroke-miterlimit="4" fill="#000000" stroke-opacity="1" stroke-linecap="round" stroke-linejoin="round" fill-opacity="1" fill-rule="nonzero" stroke-dasharray="none" stroke="none" stroke-width="10px" d="M70.729,76.212L27.009,78.034C22.82,78.209,19.567,81.746,19.741,85.934C19.916,90.122,23.453,93.376,27.641,93.202L71.361,91.38C75.549,91.205,78.803,87.668,78.628,83.48C78.454,79.292,74.917,76.038,70.729,76.212Z"/>
  <path stroke-dasharray="none" fill="#000000" fill-rule="nonzero" stroke="none" stroke-linecap="round" fill-opacity="1" stroke-opacity="1" stroke-linejoin="round" stroke-miterlimit="4" stroke-width="14px" d="M38.521,48.755L20.305,76.08C17.049,80.963,18.369,87.561,23.252,90.816C28.135,94.071,34.732,92.752,37.988,87.869L56.205,60.544C59.46,55.661,58.14,49.063,53.257,45.808C48.374,42.553,41.777,43.872,38.521,48.755Z"/>
  <path fill-opacity="1" stroke-opacity="1" stroke="none" stroke-miterlimit="4" stroke-linecap="round" stroke-linejoin="round" stroke-width="0.5px" stroke-dasharray="none" fill="#000000" fill-rule="evenodd" d="M77.354,17.306C77.354,8.754,70.421,1.822,61.87,1.822C53.318,1.822,46.386,8.754,46.386,17.306C46.386,25.857,53.318,32.79,61.87,32.79C70.421,32.79,77.354,25.857,77.354,17.306ZM77.354,17.306"/>
  <path fill="#000000" fill-opacity="1" stroke-opacity="1" stroke-width="0.5px" stroke-linecap="round" stroke="none" fill-rule="nonzero" stroke-dasharray="none" stroke-miterlimit="4" stroke-linejoin="round" d="M77.733,17.306C77.733,8.545,70.631,1.442,61.87,1.442C53.108,1.442,46.006,8.545,46.006,17.306C46.006,26.067,53.108,33.169,61.87,33.169C70.631,33.169,77.733,26.067,77.733,17.306ZM76.974,17.306C76.974,25.648,70.212,32.41,61.87,32.41C53.528,32.41,46.765,25.648,46.765,17.306C46.765,8.964,53.528,2.201,61.87,2.201C70.212,2.201,76.974,8.964,76.974,17.306Z"/>
</g>
  <g id="Thin-L" transform="matrix(1.0,0.0,0.0,1.0,789.3978986221027,1453.8624149576824)">  <path stroke-linecap="round" stroke-width="9px" stroke-miterlimit="4" fill-rule="nonzero" stroke="none" stroke-opacity="1" stroke-dasharray="none" fill="#000000" stroke-linejoin="round" fill-opacity="1" d="M116.586,43.72L47.363,43.72C44.345,43.72,41.898,46.167,41.898,49.185C41.898,52.203,44.345,54.65,47.363,54.65L116.586,54.65C119.604,54.65,122.051,52.203,122.051,49.185C122.051,46.167,119.604,43.72,116.586,43.72Z"/>
  <path fill-opacity="1" stroke-dasharray="none" stroke="none" stroke-linejoin="round" stroke-miterlimit="4" fill="#000000" stroke-opacity="1" fill-rule="nonzero" stroke-width="8px" stroke-linecap="round" d="M64.702,125.468L79.276,83.571C80.158,81.037,78.818,78.268,76.284,77.387C73.75,76.505,70.981,77.845,70.1,80.379L55.526,122.277C54.645,124.811,55.984,127.579,58.518,128.461C61.052,129.342,63.821,128.002,64.702,125.468Z"/>
  <path fill="#000000" stroke-linejoin="round" stroke="none" stroke-dasharray="none" stroke-linecap="round" stroke-miterlimit="4" stroke-opacity="1" fill-opacity="1" stroke-width="10px" fill-rule="nonzero" d="M70.792,77.729L27.072,79.551C23.721,79.691,21.118,82.52,21.258,85.871C21.398,89.221,24.227,91.824,27.578,91.685L71.297,89.863C74.648,89.723,77.251,86.894,77.111,83.543C76.972,80.192,74.142,77.589,70.792,77.729Z"/>
  <path fill="#000000" stroke-linejoin="round" stroke="none" fill-rule="nonzero" stroke-width="14px" stroke-miterlimit="4" stroke-opacity="1" fill-opacity="1" stroke-dasharray="none" stroke-linecap="round" d="M40.29,49.934L22.073,77.259C19.469,81.165,20.524,86.443,24.431,89.048C28.337,91.652,33.615,90.596,36.22,86.69L54.436,59.365C57.041,55.459,55.985,50.181,52.078,47.576C48.172,44.972,42.894,46.028,40.29,49.934Z"/>
  <path fill-opacity="1" stroke="none" stroke-dasharray="none" stroke-linecap="round" stroke-opacity="1" stroke-width="0.5px" stroke-linejoin="round" fill-rule="evenodd" stroke-miterlimit="4" fill="#000000" d="M77.354,17.306C77.354,8.754,70.421,1.822,61.87,1.822C53.318,1.822,46.386,8.754,46.386,17.306C46.386,25.857,53.318,32.79,61.87,32.79C70.421,32.79,77.354,25.857,77.354,17.306ZM77.354,17.306"/>
  <path stroke-opacity="1" stroke-linecap="round" fill="#000000" stroke="none" stroke-linejoin="round" fill-rule="nonzero" stroke-miterlimit="4" stroke-dasharray="none" fill-opacity="1" stroke-width="0.5px" d="M77.657,17.306C77.657,8.586,70.589,1.518,61.87,1.518C53.15,1.518,46.082,8.586,46.082,17.306C46.082,26.025,53.15,33.093,61.87,33.093C70.589,33.093,77.657,26.025,77.657,17.306ZM77.05,17.306C77.05,25.69,70.254,32.486,61.87,32.486C53.486,32.486,46.689,25.69,46.689,17.306C46.689,8.922,53.486,2.125,61.87,2.125C70.254,2.125,77.05,8.922,77.05,17.306Z"/>
</g>
  <g id="Ultralight-L" transform="matrix(1.0,0.0,0.0,1.0,492.6878986221027,1453.8624149576824)">  <path stroke="none" stroke-width="9px" stroke-miterlimit="4" fill="#000000" fill-opacity="1" stroke-opacity="1" stroke-linecap="round" fill-rule="nonzero" stroke-dasharray="none" stroke-linejoin="round" d="M116.586,45.086L47.363,45.086C45.099,45.086,43.264,46.921,43.264,49.185C43.264,51.449,45.099,53.284,47.363,53.284L116.586,53.283C118.85,53.283,120.685,51.448,120.685,49.185C120.685,46.921,118.85,45.086,116.586,45.086Z"/>
  <path stroke-linejoin="round" fill-rule="nonzero" stroke-linecap="round" stroke-miterlimit="4" fill-opacity="1" stroke="none" stroke-width="8px" stroke-dasharray="none" fill="#000000" stroke-opacity="1" d="M63.555,125.07L78.129,83.172C78.79,81.271,77.786,79.195,75.885,78.534C73.985,77.872,71.908,78.877,71.247,80.778L56.673,122.676C56.012,124.576,57.017,126.653,58.917,127.314C60.818,127.975,62.894,126.97,63.555,125.07Z"/>
  <path fill-opacity="1" stroke-linejoin="round" stroke-opacity="1" stroke="none" stroke-linecap="round" fill-rule="nonzero" stroke-miterlimit="4" fill="#000000" stroke-dasharray="none" stroke-width="10px" d="M70.855,79.246L27.135,81.068C24.622,81.172,22.67,83.294,22.775,85.807C22.879,88.321,25.001,90.273,27.514,90.168L71.234,88.346C73.747,88.241,75.699,86.119,75.595,83.606C75.49,81.093,73.368,79.141,70.855,79.246Z"/>
  <path stroke-opacity="1" stroke="none" stroke-width="14px" fill="#000000" fill-opacity="1" stroke-miterlimit="4" stroke-dasharray="none" stroke-linejoin="round" fill-rule="nonzero" stroke-linecap="round" d="M42.058,51.113L23.841,78.438C21.888,81.368,22.68,85.326,25.61,87.279C28.539,89.233,32.498,88.441,34.451,85.511L52.668,58.186C54.621,55.256,53.829,51.298,50.9,49.345C47.97,47.391,44.011,48.183,42.058,51.113Z"/>
  <path stroke-miterlimit="4" fill="#000000" fill-rule="evenodd" fill-opacity="1" stroke-dasharray="none" stroke-linecap="round" stroke-width="0.5px" stroke="none" stroke-linejoin="round" stroke-opacity="1" d="M77.354,17.306C77.354,8.754,70.421,1.822,61.87,1.822C53.318,1.822,46.386,8.754,46.386,17.306C46.386,25.857,53.318,32.79,61.87,32.79C70.421,32.79,77.354,25.857,77.354,17.306ZM77.354,17.306"/>
  <path stroke-linecap="round" stroke-dasharray="none" stroke-linejoin="round" stroke-width="0.5px" fill-rule="nonzero" fill-opacity="1" stroke-miterlimit="4" stroke="none" fill="#000000" stroke-opacity="1" d="M77.581,17.306C77.581,8.628,70.547,1.594,61.87,1.594C53.192,1.594,46.158,8.628,46.158,17.306C46.158,25.983,53.192,33.018,61.87,33.018C70.547,33.018,77.581,25.983,77.581,17.306ZM77.126,17.306C77.126,25.732,70.296,32.562,61.87,32.562C53.444,32.562,46.613,25.732,46.613,17.306C46.613,8.88,53.444,2.049,61.87,2.049C70.296,2.049,77.126,8.88,77.126,17.306Z"/>
</g>
  <g id="Black-M" transform="matrix(1.0,0.0,0.0,1.0,2881.7248826527925,1038.9036593967014)">  <path stroke-linecap="round" stroke-width="9px" stroke-dasharray="none" fill-opacity="1" stroke-opacity="1" fill-rule="nonzero" fill="#000000" stroke-linejoin="round" stroke="none" stroke-miterlimit="4" d="M90.377,24.084L36.716,24.084C28.959,24.084,22.672,30.372,22.672,38.128C22.672,45.884,28.959,52.172,36.716,52.172L90.377,52.171C98.133,52.171,104.42,45.884,104.42,38.128C104.42,30.372,98.133,24.084,90.377,24.084Z"/>
  <path stroke-linejoin="round" fill-rule="nonzero" stroke="none" stroke-miterlimit="4" fill-opacity="1" stroke-width="8px" stroke-linecap="round" stroke-dasharray="none" stroke-opacity="1" fill="#000000" d="M58.391,100.126L69.688,67.647C71.953,61.136,68.511,54.021,61.999,51.756C55.487,49.491,48.372,52.933,46.107,59.445L34.81,91.924C32.545,98.436,35.987,105.551,42.499,107.816C49.011,110.081,56.126,106.638,58.391,100.126Z"/>
  <path stroke-linejoin="round" stroke-linecap="round" stroke="none" stroke-miterlimit="4" stroke-dasharray="none" stroke-width="10px" fill="#000000" stroke-opacity="1" fill-rule="nonzero" fill-opacity="1" d="M54.424,49.367L20.532,50.78C11.922,51.139,5.233,58.41,5.591,67.02C5.95,75.631,13.221,82.32,21.832,81.961L55.723,80.549C64.333,80.19,71.023,72.919,70.664,64.308C70.305,55.698,63.034,49.009,54.424,49.367Z"/>
  <path stroke-miterlimit="4" stroke-dasharray="none" fill-rule="nonzero" stroke-opacity="1" stroke="none" fill-opacity="1" stroke-linejoin="round" stroke-linecap="round" fill="#000000" stroke-width="14px" d="M18.539,30.246L4.417,51.428C-2.275,61.467,0.437,75.03,10.476,81.723C20.515,88.415,34.078,85.703,40.771,75.664L54.892,54.482C61.585,44.443,58.872,30.88,48.833,24.187C38.795,17.495,25.231,20.207,18.539,30.246Z"/>
  <path fill="#000000" fill-rule="evenodd" fill-opacity="1" stroke-opacity="1" stroke-miterlimit="4" stroke-dasharray="none" stroke-linecap="round" stroke="none" stroke-linejoin="round" stroke-width="0.5px" d="M59.964,13.415C59.964,6.786,54.59,1.412,47.961,1.412C41.332,1.412,35.958,6.786,35.958,13.415C35.958,20.044,41.332,25.418,47.961,25.418C54.59,25.418,59.964,20.044,59.964,13.415ZM59.964,13.415"/>
  <path stroke-dasharray="none" stroke-opacity="1" stroke-linecap="round" stroke="none" stroke-width="0.5px" fill-rule="nonzero" fill="#000000" stroke-linejoin="round" fill-opacity="1" stroke-miterlimit="4" d="M60.744,13.415C60.744,6.355,55.021,0.632,47.961,0.632C40.901,0.632,35.178,6.355,35.178,13.415C35.178,20.475,40.901,26.199,47.961,26.199C55.021,26.199,60.744,20.475,60.744,13.415ZM59.184,13.415C59.184,19.614,54.159,24.638,47.961,24.638C41.763,24.638,36.738,19.614,36.738,13.415C36.738,7.217,41.763,2.192,47.961,2.192C54.159,2.192,59.184,7.217,59.184,13.415Z"/>
</g>
  <g id="Heavy-M" transform="matrix(1.0,0.0,0.0,1.0,2585.0148826527925,1038.9036593967014)">  <path fill-rule="nonzero" stroke-opacity="1" stroke-linecap="round" fill-opacity="1" stroke-miterlimit="4" stroke-dasharray="none" stroke-linejoin="round" fill="#000000" stroke-width="9px" stroke="none" d="M90.377,25.622L36.716,25.622C29.809,25.622,24.21,31.221,24.21,38.128C24.21,45.035,29.809,50.634,36.716,50.634L90.377,50.634C97.284,50.634,102.883,45.034,102.883,38.128C102.883,31.221,97.283,25.622,90.377,25.622Z"/>
  <path stroke-width="8px" stroke-dasharray="none" fill="#000000" stroke-miterlimit="4" stroke="none" stroke-linecap="round" stroke-linejoin="round" stroke-opacity="1" fill-opacity="1" fill-rule="nonzero" d="M57.1,99.677L68.397,67.198C70.414,61.4,67.348,55.064,61.55,53.047C55.751,51.03,49.415,54.096,47.398,59.894L36.101,92.373C34.084,98.172,37.15,104.508,42.948,106.525C48.747,108.542,55.083,105.476,57.1,99.677Z"/>
  <path stroke="none" stroke-dasharray="none" stroke-linecap="round" fill-rule="nonzero" stroke-opacity="1" stroke-width="10px" fill-opacity="1" stroke-linejoin="round" fill="#000000" stroke-miterlimit="4" d="M54.495,51.075L20.603,52.487C12.936,52.807,6.979,59.281,7.299,66.949C7.618,74.617,14.093,80.573,21.761,80.254L55.652,78.841C63.319,78.522,69.276,72.047,68.957,64.379C68.637,56.712,62.162,50.755,54.495,51.075Z"/>
  <path stroke-dasharray="none" stroke-miterlimit="4" stroke-width="14px" fill="#000000" fill-rule="nonzero" stroke-opacity="1" stroke-linejoin="round" stroke-linecap="round" stroke="none" fill-opacity="1" d="M20.529,31.573L6.408,52.755C0.448,61.695,2.864,73.773,11.803,79.732C20.743,85.692,32.821,83.276,38.78,74.337L52.902,53.155C58.861,44.216,56.446,32.137,47.506,26.178C38.567,20.218,26.489,22.634,20.529,31.573Z"/>
  <path stroke-miterlimit="4" stroke-linecap="round" stroke="none" fill-opacity="1" stroke-opacity="1" stroke-linejoin="round" fill="#000000" stroke-width="0.5px" stroke-dasharray="none" fill-rule="evenodd" d="M59.964,13.415C59.964,6.786,54.59,1.412,47.961,1.412C41.332,1.412,35.958,6.786,35.958,13.415C35.958,20.044,41.332,25.418,47.961,25.418C54.59,25.418,59.964,20.044,59.964,13.415ZM59.964,13.415"/>
  <path fill-rule="nonzero" stroke-linejoin="round" stroke="none" stroke-opacity="1" fill="#000000" stroke-width="0.5px" stroke-linecap="round" fill-opacity="1" stroke-dasharray="none" stroke-miterlimit="4" d="M60.659,13.415C60.659,6.402,54.974,0.717,47.961,0.717C40.948,0.717,35.263,6.402,35.263,13.415C35.263,20.428,40.948,26.113,47.961,26.113C54.974,26.113,60.659,20.428,60.659,13.415ZM59.269,13.415C59.269,19.661,54.206,24.724,47.961,24.724C41.716,24.724,36.653,19.661,36.653,13.415C36.653,7.17,41.716,2.107,47.961,2.107C54.206,2.107,59.269,7.17,59.269,13.415Z"/>
</g>
  <g id="Bold-M" transform="matrix(1.0,0.0,0.0,1.0,2288.3048826527925,1038.9036593967014)">  <path stroke="none" fill-opacity="1" stroke-linecap="round" stroke-miterlimit="4" stroke-linejoin="round" stroke-width="9px" fill="#000000" fill-rule="nonzero" stroke-dasharray="none" stroke-opacity="1" d="M90.377,27.16L36.716,27.16C30.658,27.16,25.747,32.07,25.747,38.128C25.748,44.185,30.658,49.096,36.716,49.096L90.377,49.096C96.434,49.096,101.345,44.185,101.345,38.128C101.345,32.07,96.434,27.16,90.377,27.16Z"/>
  <path stroke="none" stroke-opacity="1" fill="#000000" stroke-linecap="round" stroke-linejoin="round" fill-opacity="1" stroke-miterlimit="4" stroke-dasharray="none" fill-rule="nonzero" stroke-width="8px" d="M55.808,99.228L67.106,66.749C68.875,61.664,66.186,56.107,61.101,54.338C56.015,52.569,50.459,55.258,48.69,60.343L37.392,92.822C35.623,97.908,38.312,103.464,43.397,105.233C48.483,107.002,54.04,104.314,55.808,99.228Z"/>
  <path stroke-opacity="1" fill-rule="nonzero" fill-opacity="1" stroke-linecap="round" stroke="none" stroke-miterlimit="4" stroke-width="10px" stroke-linejoin="round" stroke-dasharray="none" fill="#000000" d="M54.566,52.782L20.675,54.194C13.95,54.475,8.726,60.153,9.006,66.878C9.286,73.603,14.965,78.827,21.689,78.547L55.581,77.134C62.305,76.854,67.53,71.175,67.249,64.451C66.969,57.726,61.291,52.502,54.566,52.782Z"/>
  <path stroke-opacity="1" stroke="none" fill="#000000" stroke-dasharray="none" fill-opacity="1" stroke-miterlimit="4" fill-rule="nonzero" stroke-linejoin="round" stroke-linecap="round" stroke-width="14px" d="M22.519,32.9L8.398,54.082C3.171,61.922,5.29,72.515,13.13,77.742C20.97,82.969,31.563,80.85,36.79,73.01L50.911,51.828C56.138,43.988,54.02,33.395,46.179,28.168C38.339,22.941,27.746,25.06,22.519,32.9Z"/>
  <path stroke-opacity="1" stroke-linecap="round" stroke-linejoin="round" stroke-miterlimit="4" fill="#000000" stroke-width="0.5px" stroke="none" stroke-dasharray="none" fill-rule="evenodd" fill-opacity="1" d="M59.964,13.415C59.964,6.786,54.59,1.412,47.961,1.412C41.332,1.412,35.958,6.786,35.958,13.415C35.958,20.044,41.332,25.418,47.961,25.418C54.59,25.418,59.964,20.044,59.964,13.415ZM59.964,13.415"/>
  <path stroke-linecap="round" fill="#000000" fill-rule="nonzero" stroke-width="0.5px" stroke-opacity="1" stroke-miterlimit="4" stroke-linejoin="round" stroke="none" stroke-dasharray="none" fill-opacity="1" d="M60.573,13.415C60.573,6.45,54.927,0.803,47.961,0.803C40.995,0.803,35.348,6.45,35.348,13.415C35.348,20.381,40.995,26.028,47.961,26.028C54.927,26.028,60.573,20.381,60.573,13.415ZM59.355,13.415C59.355,19.708,54.254,24.809,47.961,24.809C41.668,24.809,36.567,19.708,36.567,13.415C36.567,7.123,41.668,2.021,47.961,2.021C54.254,2.021,59.355,7.123,59.355,13.415Z"/>
</g>
  <g id="Semibold-M" transform="matrix(1.0,0.0,0.0,1.0,1991.5948826527926,1038.9036593967014)">  <path stroke="none" stroke-opacity="1" fill="#000000" stroke-dasharray="none" stroke-linecap="round" stroke-miterlimit="4" fill-opacity="1" fill-rule="nonzero" stroke-linejoin="round" stroke-width="9px" d="M90.377,28.697L36.716,28.698C31.507,28.698,27.285,32.92,27.285,38.128C27.285,43.336,31.507,47.558,36.716,47.558L90.377,47.558C95.585,47.558,99.807,43.336,99.807,38.128C99.807,32.919,95.585,28.697,90.377,28.697Z"/>
  <path stroke-miterlimit="4" fill="#000000" stroke-opacity="1" stroke-width="8px" stroke-linejoin="round" stroke-dasharray="none" stroke="none" stroke-linecap="round" fill-opacity="1" fill-rule="nonzero" d="M54.517,98.779L65.815,66.3C67.336,61.928,65.024,57.15,60.652,55.629C56.279,54.108,51.502,56.42,49.981,60.792L38.683,93.271C37.162,97.644,39.474,102.421,43.846,103.942C48.219,105.463,52.996,103.152,54.517,98.779Z"/>
  <path fill-opacity="1" stroke-width="10px" stroke-linecap="round" fill-rule="nonzero" stroke="none" stroke-linejoin="round" stroke-miterlimit="4" stroke-dasharray="none" stroke-opacity="1" fill="#000000" d="M54.637,54.489L20.746,55.901C14.964,56.142,10.472,61.025,10.713,66.807C10.954,72.589,15.836,77.08,21.618,76.839L55.51,75.427C61.291,75.186,65.783,70.304,65.542,64.522C65.301,58.74,60.419,54.248,54.637,54.489Z"/>
  <path stroke-dasharray="none" stroke-linecap="round" stroke-width="14px" stroke-opacity="1" stroke-miterlimit="4" stroke-linejoin="round" fill-opacity="1" fill="#000000" fill-rule="nonzero" stroke="none" d="M24.51,34.227L10.388,55.409C5.894,62.15,7.716,71.258,14.457,75.752C21.198,80.246,30.306,78.424,34.8,71.683L48.921,50.501C53.415,43.76,51.593,34.652,44.853,30.158C38.112,25.664,29.004,27.486,24.51,34.227Z"/>
  <path stroke-linecap="round" stroke-width="0.5px" fill-rule="evenodd" stroke-miterlimit="4" stroke="none" stroke-opacity="1" stroke-linejoin="round" fill="#000000" fill-opacity="1" stroke-dasharray="none" d="M59.964,13.415C59.964,6.786,54.59,1.412,47.961,1.412C41.332,1.412,35.958,6.786,35.958,13.415C35.958,20.044,41.332,25.418,47.961,25.418C54.59,25.418,59.964,20.044,59.964,13.415ZM59.964,13.415"/>
  <path stroke-linecap="round" fill-rule="nonzero" stroke-linejoin="round" stroke-opacity="1" fill-opacity="1" stroke-miterlimit="4" stroke-dasharray="none" stroke-width="0.5px" fill="#000000" stroke="none" d="M60.488,13.415C60.488,6.497,54.879,0.888,47.961,0.888C41.042,0.888,35.434,6.497,35.434,13.415C35.434,20.334,41.042,25.942,47.961,25.942C54.879,25.942,60.488,20.334,60.488,13.415ZM59.44,13.415C59.44,19.755,54.301,24.895,47.961,24.895C41.621,24.895,36.482,19.755,36.482,13.415C36.482,7.075,41.621,1.936,47.961,1.936C54.301,1.936,59.44,7.075,59.44,13.415Z"/>
</g>
  <g id="Medium-M" transform="matrix(1.0,0.0,0.0,1.0,1694.8848826527926,1038.9036593967014)">  <path stroke-linecap="round" stroke-miterlimit="4" fill="#000000" fill-rule="nonzero" stroke-linejoin="round" stroke-dasharray="none" fill-opacity="1" stroke="none" stroke-opacity="1" stroke-width="9px" d="M90.377,30.235L36.716,30.235C32.357,30.236,28.823,33.769,28.823,38.128C28.823,42.487,32.357,46.02,36.716,46.02L90.377,46.02C94.736,46.02,98.269,42.487,98.269,38.128C98.269,33.769,94.736,30.235,90.377,30.235Z"/>
  <path stroke-linecap="round" fill="#000000" stroke="none" stroke-miterlimit="4" fill-opacity="1" fill-rule="nonzero" stroke-dasharray="none" stroke-opacity="1" stroke-linejoin="round" stroke-width="8px" d="M53.226,98.33L64.524,65.851C65.797,62.192,63.862,58.193,60.203,56.92C56.543,55.647,52.545,57.582,51.272,61.241L39.974,93.72C38.701,97.38,40.636,101.378,44.295,102.651C47.955,103.924,51.953,101.99,53.226,98.33Z"/>
  <path stroke-linecap="round" stroke-miterlimit="4" stroke-linejoin="round" stroke-opacity="1" stroke-width="10px" fill-rule="nonzero" fill="#000000" fill-opacity="1" stroke="none" stroke-dasharray="none" d="M54.708,56.196L20.817,57.609C15.978,57.81,12.219,61.897,12.42,66.736C12.622,71.575,16.708,75.334,21.547,75.132L55.438,73.72C60.277,73.518,64.037,69.432,63.835,64.593C63.633,59.754,59.547,55.995,54.708,56.196Z"/>
  <path stroke-linejoin="round" stroke-miterlimit="4" fill-rule="nonzero" stroke="none" fill="#000000" stroke-dasharray="none" stroke-width="14px" stroke-opacity="1" fill-opacity="1" stroke-linecap="round" d="M26.5,35.554L12.379,56.736C8.618,62.378,10.142,70,15.784,73.761C21.426,77.522,29.048,75.998,32.809,70.356L46.931,49.174C50.692,43.533,49.167,35.91,43.526,32.149C37.884,28.388,30.261,29.912,26.5,35.554Z"/>
  <path fill-opacity="1" stroke-width="0.5px" stroke-dasharray="none" fill-rule="evenodd" stroke="none" stroke-opacity="1" stroke-linecap="round" fill="#000000" stroke-linejoin="round" stroke-miterlimit="4" d="M59.964,13.415C59.964,6.786,54.59,1.412,47.961,1.412C41.332,1.412,35.958,6.786,35.958,13.415C35.958,20.044,41.332,25.418,47.961,25.418C54.59,25.418,59.964,20.044,59.964,13.415ZM59.964,13.415"/>
  <path fill="#000000" stroke-linecap="round" fill-rule="nonzero" stroke="none" stroke-opacity="1" stroke-dasharray="none" stroke-linejoin="round" stroke-miterlimit="4" fill-opacity="1" stroke-width="0.5px" d="M60.403,13.415C60.403,6.544,54.832,0.974,47.961,0.974C41.09,0.974,35.519,6.544,35.519,13.415C35.519,20.287,41.09,25.857,47.961,25.857C54.832,25.857,60.403,20.287,60.403,13.415ZM59.526,13.415C59.526,19.802,54.348,24.98,47.961,24.98C41.574,24.98,36.396,19.802,36.396,13.415C36.396,7.028,41.574,1.851,47.961,1.851C54.348,1.851,59.526,7.028,59.526,13.415Z"/>
</g>
  <g id="Regular-M" transform="matrix(1.0,0.0,0.0,1.0,1398.1748826527926,1038.9036593967014)">  <path stroke="none" stroke-opacity="1" stroke-width="9px" fill-rule="nonzero" stroke-miterlimit="4" fill-opacity="1" stroke-linejoin="round" fill="#000000" stroke-linecap="round" stroke-dasharray="none" d="M90.377,31.773L36.716,31.773C33.206,31.773,30.361,34.618,30.361,38.128C30.361,41.637,33.206,44.483,36.716,44.483L90.377,44.482C93.886,44.482,96.731,41.637,96.731,38.128C96.731,34.618,93.886,31.773,90.377,31.773Z"/>
  <path fill="#000000" stroke-width="8px" stroke="none" stroke-opacity="1" stroke-linecap="round" fill-opacity="1" stroke-dasharray="none" stroke-linejoin="round" fill-rule="nonzero" stroke-miterlimit="4" d="M51.935,97.881L63.233,65.402C64.258,62.456,62.7,59.236,59.754,58.211C56.807,57.186,53.588,58.744,52.563,61.69L41.265,94.17C40.24,97.116,41.798,100.335,44.745,101.36C47.691,102.385,50.91,100.827,51.935,97.881Z"/>
  <path stroke-opacity="1" fill-rule="nonzero" stroke-dasharray="none" stroke-miterlimit="4" fill="#000000" stroke-linejoin="round" stroke="none" stroke-linecap="round" fill-opacity="1" stroke-width="10px" d="M54.779,57.904L20.888,59.316C16.992,59.478,13.965,62.768,14.127,66.664C14.29,70.561,17.58,73.587,21.476,73.425L55.367,72.013C59.263,71.85,62.29,68.56,62.128,64.664C61.965,60.768,58.675,57.741,54.779,57.904Z"/>
  <path fill-opacity="1" fill="#000000" stroke-linejoin="round" stroke-dasharray="none" stroke-linecap="round" stroke="none" stroke-opacity="1" fill-rule="nonzero" stroke-miterlimit="4" stroke-width="14px" d="M28.491,36.881L14.369,58.063C11.341,62.605,12.568,68.742,17.111,71.771C21.653,74.799,27.79,73.572,30.819,69.029L44.94,47.847C47.968,43.305,46.741,37.168,42.199,34.139C37.656,31.111,31.519,32.338,28.491,36.881Z"/>
  <path stroke="none" fill="#000000" fill-opacity="1" stroke-miterlimit="4" stroke-linejoin="round" stroke-dasharray="none" stroke-linecap="round" stroke-width="0.5px" fill-rule="evenodd" stroke-opacity="1" d="M59.964,13.415C59.964,6.786,54.59,1.412,47.961,1.412C41.332,1.412,35.958,6.786,35.958,13.415C35.958,20.044,41.332,25.418,47.961,25.418C54.59,25.418,59.964,20.044,59.964,13.415ZM59.964,13.415"/>
  <path stroke-linecap="round" fill="#000000" fill-rule="nonzero" stroke-miterlimit="4" stroke-dasharray="none" stroke-width="0.5px" stroke-opacity="1" fill-opacity="1" stroke-linejoin="round" stroke="none" d="M60.317,13.415C60.317,6.591,54.785,1.059,47.961,1.059C41.137,1.059,35.605,6.591,35.605,13.415C35.605,20.239,41.137,25.771,47.961,25.771C54.785,25.771,60.317,20.239,60.317,13.415ZM59.611,13.415C59.611,19.849,54.395,25.065,47.961,25.065C41.527,25.065,36.311,19.849,36.311,13.415C36.311,6.981,41.527,1.765,47.961,1.765C54.395,1.765,59.611,6.981,59.611,13.415Z"/>
</g>
  <g id="Light-M" transform="matrix(1.0,0.0,0.0,1.0,1101.4648826527928,1038.9036593967014)">  <path stroke-dasharray="none" stroke-width="9px" stroke-opacity="1" fill-rule="nonzero" stroke-linejoin="round" stroke="none" stroke-linecap="round" fill="#000000" fill-opacity="1" stroke-miterlimit="4" d="M90.377,32.832L36.716,32.832C33.791,32.832,31.42,35.203,31.42,38.128C31.42,41.053,33.791,43.423,36.716,43.423L90.377,43.423C93.301,43.423,95.672,41.052,95.672,38.128C95.672,35.203,93.301,32.832,90.377,32.832Z"/>
  <path stroke-linejoin="round" stroke-miterlimit="4" stroke-opacity="1" stroke-width="8px" fill-opacity="1" fill-rule="nonzero" fill="#000000" stroke-dasharray="none" stroke="none" stroke-linecap="round" d="M51.046,97.572L62.344,65.093C63.198,62.637,61.9,59.954,59.444,59.1C56.989,58.246,54.306,59.544,53.452,62L42.154,94.479C41.3,96.934,42.598,99.617,45.054,100.471C47.509,101.325,50.192,100.027,51.046,97.572Z"/>
  <path stroke-miterlimit="4" fill="#000000" stroke-opacity="1" stroke-linecap="round" stroke-linejoin="round" fill-opacity="1" fill-rule="nonzero" stroke-dasharray="none" stroke="none" stroke-width="10px" d="M54.828,59.079L20.937,60.492C17.69,60.627,15.168,63.369,15.303,66.615C15.439,69.862,18.18,72.385,21.427,72.249L55.318,70.837C58.565,70.702,61.087,67.96,60.952,64.713C60.817,61.466,58.075,58.944,54.828,59.079Z"/>
  <path stroke-dasharray="none" fill="#000000" fill-rule="nonzero" stroke="none" stroke-linecap="round" fill-opacity="1" stroke-opacity="1" stroke-linejoin="round" stroke-miterlimit="4" stroke-width="14px" d="M29.861,37.795L15.74,58.977C13.216,62.762,14.239,67.876,18.025,70.4C21.81,72.924,26.924,71.901,29.448,68.115L43.569,46.933C46.093,43.148,45.07,38.034,41.285,35.51C37.499,32.986,32.385,34.009,29.861,37.795Z"/>
  <path fill-opacity="1" stroke-opacity="1" stroke="none" stroke-miterlimit="4" stroke-linecap="round" stroke-linejoin="round" stroke-width="0.5px" stroke-dasharray="none" fill="#000000" fill-rule="evenodd" d="M59.964,13.415C59.964,6.786,54.59,1.412,47.961,1.412C41.332,1.412,35.958,6.786,35.958,13.415C35.958,20.044,41.332,25.418,47.961,25.418C54.59,25.418,59.964,20.044,59.964,13.415ZM59.964,13.415"/>
  <path fill="#000000" fill-opacity="1" stroke-opacity="1" stroke-width="0.5px" stroke-linecap="round" stroke="none" fill-rule="nonzero" stroke-dasharray="none" stroke-miterlimit="4" stroke-linejoin="round" d="M60.258,13.415C60.258,6.624,54.753,1.118,47.961,1.118C41.169,1.118,35.664,6.624,35.664,13.415C35.664,20.207,41.169,25.713,47.961,25.713C54.753,25.713,60.258,20.207,60.258,13.415ZM59.67,13.415C59.67,19.882,54.428,25.124,47.961,25.124C41.494,25.124,36.252,19.882,36.252,13.415C36.252,6.949,41.494,1.706,47.961,1.706C54.428,1.706,59.67,6.949,59.67,13.415Z"/>
</g>
  <g id="Thin-M" transform="matrix(1.0,0.0,0.0,1.0,804.7548826527928,1038.9036593967014)">  <path stroke-linecap="round" stroke-width="9px" stroke-miterlimit="4" fill-rule="nonzero" stroke="none" stroke-opacity="1" stroke-dasharray="none" fill="#000000" stroke-linejoin="round" fill-opacity="1" d="M90.377,33.891L36.716,33.892C34.376,33.892,32.479,35.788,32.479,38.128C32.479,40.468,34.376,42.364,36.716,42.364L90.377,42.364C92.716,42.364,94.613,40.467,94.613,38.128C94.613,35.788,92.716,33.891,90.377,33.891Z"/>
  <path fill-opacity="1" stroke-dasharray="none" stroke="none" stroke-linejoin="round" stroke-miterlimit="4" fill="#000000" stroke-opacity="1" fill-rule="nonzero" stroke-width="8px" stroke-linecap="round" d="M50.157,97.262L61.454,64.783C62.138,62.819,61.099,60.673,59.135,59.99C57.171,59.306,55.024,60.345,54.341,62.309L43.044,94.788C42.36,96.752,43.399,98.899,45.363,99.582C47.327,100.265,49.474,99.227,50.157,97.262Z"/>
  <path fill="#000000" stroke-linejoin="round" stroke="none" stroke-dasharray="none" stroke-linecap="round" stroke-miterlimit="4" stroke-opacity="1" fill-opacity="1" stroke-width="10px" fill-rule="nonzero" d="M54.877,60.255L20.986,61.667C18.389,61.776,16.371,63.969,16.479,66.566C16.587,69.164,18.781,71.182,21.378,71.073L55.269,69.661C57.867,69.553,59.885,67.359,59.776,64.762C59.668,62.165,57.475,60.147,54.877,60.255Z"/>
  <path fill="#000000" stroke-linejoin="round" stroke="none" fill-rule="nonzero" stroke-width="14px" stroke-miterlimit="4" stroke-opacity="1" fill-opacity="1" stroke-dasharray="none" stroke-linecap="round" d="M31.232,38.709L17.111,59.891C15.092,62.919,15.91,67.01,18.939,69.029C21.967,71.048,26.058,70.23,28.077,67.201L42.199,46.02C44.217,42.991,43.399,38.9,40.371,36.881C37.343,34.862,33.251,35.68,31.232,38.709Z"/>
  <path fill-opacity="1" stroke="none" stroke-dasharray="none" stroke-linecap="round" stroke-opacity="1" stroke-width="0.5px" stroke-linejoin="round" fill-rule="evenodd" stroke-miterlimit="4" fill="#000000" d="M59.964,13.415C59.964,6.786,54.59,1.412,47.961,1.412C41.332,1.412,35.958,6.786,35.958,13.415C35.958,20.044,41.332,25.418,47.961,25.418C54.59,25.418,59.964,20.044,59.964,13.415ZM59.964,13.415"/>
  <path stroke-opacity="1" stroke-linecap="round" fill="#000000" stroke="none" stroke-linejoin="round" fill-rule="nonzero" stroke-miterlimit="4" stroke-dasharray="none" fill-opacity="1" stroke-width="0.5px" d="M60.2,13.415C60.2,6.656,54.72,1.177,47.961,1.177C41.202,1.177,35.722,6.656,35.722,13.415C35.722,20.174,41.202,25.654,47.961,25.654C54.72,25.654,60.2,20.174,60.2,13.415ZM59.729,13.415C59.729,19.914,54.46,25.183,47.961,25.183C41.462,25.183,36.193,19.914,36.193,13.415C36.193,6.916,41.462,1.647,47.961,1.647C54.46,1.647,59.729,6.916,59.729,13.415Z"/>
</g>
  <g id="Ultralight-M" transform="matrix(1.0,0.0,0.0,1.0,508.0448826527928,1038.9036593967014)">  <path stroke="none" stroke-width="9px" stroke-miterlimit="4" fill="#000000" fill-opacity="1" stroke-opacity="1" stroke-linecap="round" fill-rule="nonzero" stroke-dasharray="none" stroke-linejoin="round" d="M90.377,34.95L36.716,34.951C34.961,34.951,33.538,36.373,33.538,38.128C33.538,39.883,34.961,41.305,36.716,41.305L90.377,41.305C92.132,41.305,93.554,39.882,93.554,38.128C93.554,36.373,92.131,34.95,90.377,34.95Z"/>
  <path stroke-linejoin="round" fill-rule="nonzero" stroke-linecap="round" stroke-miterlimit="4" fill-opacity="1" stroke="none" stroke-width="8px" stroke-dasharray="none" fill="#000000" stroke-opacity="1" d="M49.268,96.953L60.565,64.474C61.078,63.001,60.299,61.391,58.826,60.879C57.352,60.366,55.743,61.145,55.23,62.618L43.933,95.097C43.42,96.571,44.199,98.18,45.672,98.693C47.146,99.205,48.755,98.426,49.268,96.953Z"/>
  <path fill-opacity="1" stroke-linejoin="round" stroke-opacity="1" stroke="none" stroke-linecap="round" fill-rule="nonzero" stroke-miterlimit="4" fill="#000000" stroke-dasharray="none" stroke-width="10px" d="M54.926,61.431L21.035,62.843C19.087,62.924,17.574,64.569,17.655,66.517C17.736,68.466,19.381,69.979,21.329,69.898L55.22,68.485C57.168,68.404,58.682,66.759,58.601,64.811C58.519,62.863,56.874,61.35,54.926,61.431Z"/>
  <path stroke-opacity="1" stroke="none" stroke-width="14px" fill="#000000" fill-opacity="1" stroke-miterlimit="4" stroke-dasharray="none" stroke-linejoin="round" fill-rule="nonzero" stroke-linecap="round" d="M32.603,39.622L18.482,60.804C16.967,63.076,17.581,66.144,19.852,67.658C22.124,69.173,25.192,68.559,26.706,66.288L40.828,45.106C42.342,42.834,41.728,39.766,39.457,38.252C37.186,36.737,34.117,37.351,32.603,39.622Z"/>
  <path stroke-miterlimit="4" fill="#000000" fill-rule="evenodd" fill-opacity="1" stroke-dasharray="none" stroke-linecap="round" stroke-width="0.5px" stroke="none" stroke-linejoin="round" stroke-opacity="1" d="M59.964,13.415C59.964,6.786,54.59,1.412,47.961,1.412C41.332,1.412,35.958,6.786,35.958,13.415C35.958,20.044,41.332,25.418,47.961,25.418C54.59,25.418,59.964,20.044,59.964,13.415ZM59.964,13.415"/>
  <path stroke-linecap="round" stroke-dasharray="none" stroke-linejoin="round" stroke-width="0.5px" fill-rule="nonzero" fill-opacity="1" stroke-miterlimit="4" stroke="none" fill="#000000" stroke-opacity="1" d="M60.141,13.415C60.141,6.689,54.688,1.236,47.961,1.236C41.234,1.236,35.781,6.689,35.781,13.415C35.781,20.142,41.234,25.595,47.961,25.595C54.688,25.595,60.141,20.142,60.141,13.415ZM59.788,13.415C59.788,19.947,54.493,25.242,47.961,25.242C41.429,25.242,36.134,19.947,36.134,13.415C36.134,6.884,41.429,1.589,47.961,1.589C54.493,1.589,59.788,6.884,59.788,13.415Z"/>
</g>
  <g id="Black-S" transform="matrix(1.0,0.0,0.0,1.0,2893.2161431171367,620.1586595458984)">  <path stroke-linecap="round" stroke-width="9px" stroke-dasharray="none" fill-opacity="1" stroke-opacity="1" fill-rule="nonzero" fill="#000000" stroke-linejoin="round" stroke="none" stroke-miterlimit="4" d="M70.765,18.858L28.748,18.858C22.675,18.858,17.752,23.781,17.752,29.854C17.752,35.927,22.675,40.85,28.748,40.85L70.765,40.85C76.838,40.85,81.761,35.927,81.761,29.854C81.761,23.781,76.838,18.858,70.765,18.858Z"/>
  <path stroke-linejoin="round" fill-rule="nonzero" stroke="none" stroke-miterlimit="4" fill-opacity="1" stroke-width="8px" stroke-linecap="round" stroke-dasharray="none" stroke-opacity="1" fill="#000000" d="M45.72,78.399L54.566,52.968C56.339,47.869,53.644,42.298,48.545,40.525C43.447,38.751,37.876,41.447,36.102,46.545L27.256,71.977C25.483,77.075,28.178,82.646,33.277,84.42C38.375,86.193,43.946,83.498,45.72,78.399Z"/>
  <path stroke-linejoin="round" stroke-linecap="round" stroke="none" stroke-miterlimit="4" stroke-dasharray="none" stroke-width="10px" fill="#000000" stroke-opacity="1" fill-rule="nonzero" fill-opacity="1" d="M42.614,38.655L16.077,39.761C9.335,40.042,4.097,45.735,4.378,52.477C4.659,59.219,10.352,64.456,17.094,64.175L43.631,63.07C50.373,62.789,55.611,57.095,55.33,50.353C55.049,43.611,49.356,38.374,42.614,38.655Z"/>
  <path stroke-miterlimit="4" stroke-dasharray="none" fill-rule="nonzero" stroke-opacity="1" stroke="none" fill-opacity="1" stroke-linejoin="round" stroke-linecap="round" fill="#000000" stroke-width="14px" d="M14.516,23.683L3.459,40.268C-1.782,48.129,0.342,58.749,8.203,63.989C16.063,69.229,26.683,67.105,31.923,59.245L42.981,42.659C48.221,34.799,46.097,24.179,38.237,18.939C30.376,13.698,19.756,15.822,14.516,23.683Z"/>
  <path fill="#000000" fill-rule="evenodd" fill-opacity="1" stroke-opacity="1" stroke-miterlimit="4" stroke-dasharray="none" stroke-linecap="round" stroke="none" stroke-linejoin="round" stroke-width="0.5px" d="M46.952,10.504C46.952,5.314,42.744,1.106,37.553,1.106C32.363,1.106,28.155,5.314,28.155,10.504C28.155,15.695,32.363,19.903,37.553,19.903C42.744,19.903,46.952,15.695,46.952,10.504ZM46.952,10.504"/>
  <path stroke-dasharray="none" stroke-opacity="1" stroke-linecap="round" stroke="none" stroke-width="0.5px" fill-rule="nonzero" fill="#000000" stroke-linejoin="round" fill-opacity="1" stroke-miterlimit="4" d="M47.563,10.504C47.563,4.976,43.081,0.495,37.553,0.495C32.025,0.495,27.544,4.976,27.544,10.504C27.544,16.032,32.025,20.514,37.553,20.514C43.081,20.514,47.563,16.032,47.563,10.504ZM46.341,10.504C46.341,15.357,42.407,19.292,37.553,19.292C32.7,19.292,28.766,15.357,28.766,10.504C28.766,5.651,32.7,1.717,37.553,1.717C42.407,1.717,46.341,5.651,46.341,10.504Z"/>
</g>
  <g id="Heavy-S" transform="matrix(1.0,0.0,0.0,1.0,2596.5061431171366,620.1586595458984)">  <path fill-rule="nonzero" stroke-opacity="1" stroke-linecap="round" fill-opacity="1" stroke-miterlimit="4" stroke-dasharray="none" stroke-linejoin="round" fill="#000000" stroke-width="9px" stroke="none" d="M70.765,20.062L28.748,20.062C23.34,20.062,18.956,24.446,18.956,29.854C18.956,35.262,23.34,39.646,28.748,39.646L70.765,39.646C76.173,39.646,80.557,35.262,80.557,29.854C80.557,24.446,76.173,20.062,70.765,20.062Z"/>
  <path stroke-width="8px" stroke-dasharray="none" fill="#000000" stroke-miterlimit="4" stroke="none" stroke-linecap="round" stroke-linejoin="round" stroke-opacity="1" fill-opacity="1" fill-rule="nonzero" d="M44.709,78.047L53.555,52.616C55.134,48.076,52.734,43.115,48.194,41.536C43.653,39.956,38.692,42.357,37.113,46.897L28.267,72.328C26.688,76.868,29.088,81.829,33.628,83.409C38.169,84.988,43.13,82.588,44.709,78.047Z"/>
  <path stroke="none" stroke-dasharray="none" stroke-linecap="round" fill-rule="nonzero" stroke-opacity="1" stroke-width="10px" fill-opacity="1" stroke-linejoin="round" fill="#000000" stroke-miterlimit="4" d="M42.669,39.991L16.133,41.097C10.129,41.348,5.465,46.417,5.715,52.421C5.965,58.425,11.035,63.089,17.039,62.839L43.575,61.733C49.579,61.483,54.243,56.413,53.993,50.409C53.743,44.405,48.673,39.741,42.669,39.991Z"/>
  <path stroke-dasharray="none" stroke-miterlimit="4" stroke-width="14px" fill="#000000" fill-rule="nonzero" stroke-opacity="1" stroke-linejoin="round" stroke-linecap="round" stroke="none" fill-opacity="1" d="M16.074,24.722L5.017,41.307C0.351,48.307,2.242,57.764,9.242,62.43C16.241,67.097,25.699,65.205,30.365,58.206L41.422,41.62C46.089,34.621,44.197,25.164,37.198,20.497C30.198,15.831,20.741,17.722,16.074,24.722Z"/>
  <path stroke-miterlimit="4" stroke-linecap="round" stroke="none" fill-opacity="1" stroke-opacity="1" stroke-linejoin="round" fill="#000000" stroke-width="0.5px" stroke-dasharray="none" fill-rule="evenodd" d="M46.952,10.504C46.952,5.314,42.744,1.106,37.553,1.106C32.363,1.106,28.155,5.314,28.155,10.504C28.155,15.695,32.363,19.903,37.553,19.903C42.744,19.903,46.952,15.695,46.952,10.504ZM46.952,10.504"/>
  <path fill-rule="nonzero" stroke-linejoin="round" stroke="none" stroke-opacity="1" fill="#000000" stroke-width="0.5px" stroke-linecap="round" fill-opacity="1" stroke-dasharray="none" stroke-miterlimit="4" d="M47.496,10.504C47.496,5.013,43.045,0.562,37.553,0.562C32.062,0.562,27.611,5.013,27.611,10.504C27.611,15.995,32.062,20.447,37.553,20.447C43.045,20.447,47.496,15.995,47.496,10.504ZM46.408,10.504C46.408,15.394,42.444,19.359,37.553,19.359C32.663,19.359,28.699,15.394,28.699,10.504C28.699,5.614,32.663,1.65,37.553,1.65C42.444,1.65,46.408,5.614,46.408,10.504Z"/>
</g>
  <g id="Bold-S" transform="matrix(1.0,0.0,0.0,1.0,2299.7961431171366,620.1586595458984)">  <path stroke="none" fill-opacity="1" stroke-linecap="round" stroke-miterlimit="4" stroke-linejoin="round" stroke-width="9px" fill="#000000" fill-rule="nonzero" stroke-dasharray="none" stroke-opacity="1" d="M70.765,21.266L28.748,21.266C24.005,21.266,20.16,25.111,20.16,29.854C20.16,34.597,24.005,38.442,28.748,38.442L70.765,38.442C75.508,38.442,79.353,34.597,79.353,29.854C79.353,25.111,75.508,21.266,70.765,21.266Z"/>
  <path stroke="none" stroke-opacity="1" fill="#000000" stroke-linecap="round" stroke-linejoin="round" fill-opacity="1" stroke-miterlimit="4" stroke-dasharray="none" fill-rule="nonzero" stroke-width="8px" d="M43.698,77.696L52.544,52.265C53.929,48.283,51.824,43.932,47.842,42.547C43.86,41.162,39.509,43.267,38.124,47.249L29.278,72.68C27.893,76.662,29.998,81.013,33.98,82.398C37.962,83.783,42.313,81.678,43.698,77.696Z"/>
  <path stroke-opacity="1" fill-rule="nonzero" fill-opacity="1" stroke-linecap="round" stroke="none" stroke-miterlimit="4" stroke-width="10px" stroke-linejoin="round" stroke-dasharray="none" fill="#000000" d="M42.725,41.328L16.188,42.434C10.923,42.654,6.832,47.1,7.052,52.365C7.271,57.631,11.717,61.721,16.983,61.502L43.52,60.396C48.785,60.177,52.876,55.73,52.656,50.465C52.437,45.199,47.991,41.109,42.725,41.328Z"/>
  <path stroke-opacity="1" stroke="none" fill="#000000" stroke-dasharray="none" fill-opacity="1" stroke-miterlimit="4" fill-rule="nonzero" stroke-linejoin="round" stroke-linecap="round" stroke-width="14px" d="M17.633,25.761L6.576,42.346C2.483,48.485,4.142,56.779,10.281,60.872C16.42,64.965,24.714,63.306,28.807,57.167L39.864,40.581C43.956,34.442,42.297,26.148,36.159,22.056C30.02,17.963,21.725,19.622,17.633,25.761Z"/>
  <path stroke-opacity="1" stroke-linecap="round" stroke-linejoin="round" stroke-miterlimit="4" fill="#000000" stroke-width="0.5px" stroke="none" stroke-dasharray="none" fill-rule="evenodd" fill-opacity="1" d="M46.952,10.504C46.952,5.314,42.744,1.106,37.553,1.106C32.363,1.106,28.155,5.314,28.155,10.504C28.155,15.695,32.363,19.903,37.553,19.903C42.744,19.903,46.952,15.695,46.952,10.504ZM46.952,10.504"/>
  <path stroke-linecap="round" fill="#000000" fill-rule="nonzero" stroke-width="0.5px" stroke-opacity="1" stroke-miterlimit="4" stroke-linejoin="round" stroke="none" stroke-dasharray="none" fill-opacity="1" d="M47.429,10.504C47.429,5.05,43.008,0.629,37.553,0.629C32.099,0.629,27.678,5.05,27.678,10.504C27.678,15.958,32.099,20.38,37.553,20.38C43.008,20.38,47.429,15.958,47.429,10.504ZM46.475,10.504C46.475,15.431,42.481,19.426,37.553,19.426C32.626,19.426,28.632,15.431,28.632,10.504C28.632,5.577,32.626,1.583,37.553,1.583C42.481,1.583,46.475,5.577,46.475,10.504Z"/>
</g>
  <g id="Semibold-S" transform="matrix(1.0,0.0,0.0,1.0,2003.0861431171368,620.1586595458984)">  <path stroke="none" stroke-opacity="1" fill="#000000" stroke-dasharray="none" stroke-linecap="round" stroke-miterlimit="4" fill-opacity="1" fill-rule="nonzero" stroke-linejoin="round" stroke-width="9px" d="M70.765,22.47L28.748,22.47C24.67,22.47,21.364,25.776,21.364,29.854C21.364,33.932,24.67,37.238,28.748,37.238L70.765,37.238C74.843,37.238,78.149,33.932,78.149,29.854C78.149,25.776,74.843,22.47,70.765,22.47Z"/>
  <path stroke-miterlimit="4" fill="#000000" stroke-opacity="1" stroke-width="8px" stroke-linejoin="round" stroke-dasharray="none" stroke="none" stroke-linecap="round" fill-opacity="1" fill-rule="nonzero" d="M42.687,77.344L51.533,51.913C52.724,48.489,50.914,44.748,47.49,43.558C44.067,42.367,40.326,44.177,39.135,47.6L30.289,73.031C29.098,76.455,30.908,80.196,34.332,81.387C37.755,82.578,41.496,80.768,42.687,77.344Z"/>
  <path fill-opacity="1" stroke-width="10px" stroke-linecap="round" fill-rule="nonzero" stroke="none" stroke-linejoin="round" stroke-miterlimit="4" stroke-dasharray="none" stroke-opacity="1" fill="#000000" d="M42.781,42.665L16.244,43.771C11.717,43.96,8.2,47.782,8.388,52.31C8.577,56.837,12.4,60.354,16.927,60.165L43.464,59.059C47.991,58.871,51.508,55.048,51.32,50.521C51.131,45.993,47.308,42.476,42.781,42.665Z"/>
  <path stroke-dasharray="none" stroke-linecap="round" stroke-width="14px" stroke-opacity="1" stroke-miterlimit="4" stroke-linejoin="round" fill-opacity="1" fill="#000000" fill-rule="nonzero" stroke="none" d="M19.191,26.8L8.134,43.385C4.615,48.663,6.042,55.795,11.32,59.313C16.598,62.832,23.729,61.406,27.248,56.128L38.305,39.542C41.824,34.264,40.398,27.133,35.12,23.614C29.841,20.095,22.71,21.522,19.191,26.8Z"/>
  <path stroke-linecap="round" stroke-width="0.5px" fill-rule="evenodd" stroke-miterlimit="4" stroke="none" stroke-opacity="1" stroke-linejoin="round" fill="#000000" fill-opacity="1" stroke-dasharray="none" d="M46.952,10.504C46.952,5.314,42.744,1.106,37.553,1.106C32.363,1.106,28.155,5.314,28.155,10.504C28.155,15.695,32.363,19.903,37.553,19.903C42.744,19.903,46.952,15.695,46.952,10.504ZM46.952,10.504"/>
  <path stroke-linecap="round" fill-rule="nonzero" stroke-linejoin="round" stroke-opacity="1" fill-opacity="1" stroke-miterlimit="4" stroke-dasharray="none" stroke-width="0.5px" fill="#000000" stroke="none" d="M47.362,10.504C47.362,5.087,42.971,0.695,37.553,0.695C32.136,0.695,27.745,5.087,27.745,10.504C27.745,15.921,32.136,20.313,37.553,20.313C42.971,20.313,47.362,15.921,47.362,10.504ZM46.542,10.504C46.542,15.468,42.518,19.492,37.553,19.492C32.589,19.492,28.565,15.468,28.565,10.504C28.565,5.54,32.589,1.516,37.553,1.516C42.518,1.516,46.542,5.54,46.542,10.504Z"/>
</g>
  <g id="Medium-S" transform="matrix(1.0,0.0,0.0,1.0,1706.3761431171367,620.1586595458984)">  <path stroke-linecap="round" stroke-miterlimit="4" fill="#000000" fill-rule="nonzero" stroke-linejoin="round" stroke-dasharray="none" fill-opacity="1" stroke="none" stroke-opacity="1" stroke-width="9px" d="M70.765,23.674L28.748,23.674C25.335,23.674,22.568,26.441,22.569,29.854C22.569,33.267,25.335,36.034,28.748,36.034L70.765,36.034C74.178,36.034,76.945,33.267,76.945,29.854C76.945,26.441,74.178,23.674,70.765,23.674Z"/>
  <path stroke-linecap="round" fill="#000000" stroke="none" stroke-miterlimit="4" fill-opacity="1" fill-rule="nonzero" stroke-dasharray="none" stroke-opacity="1" stroke-linejoin="round" stroke-width="8px" d="M41.676,76.992L50.522,51.561C51.519,48.696,50.004,45.565,47.139,44.568C44.273,43.572,41.142,45.087,40.146,47.952L31.3,73.383C30.303,76.248,31.818,79.379,34.683,80.376C37.549,81.373,40.68,79.858,41.676,76.992Z"/>
  <path stroke-linecap="round" stroke-miterlimit="4" stroke-linejoin="round" stroke-opacity="1" stroke-width="10px" fill-rule="nonzero" fill="#000000" fill-opacity="1" stroke="none" stroke-dasharray="none" d="M42.836,44.002L16.3,45.108C12.511,45.265,9.567,48.465,9.725,52.254C9.883,56.043,13.083,58.986,16.871,58.829L43.408,57.723C47.197,57.565,50.141,54.365,49.983,50.576C49.825,46.787,46.625,43.844,42.836,44.002Z"/>
  <path stroke-linejoin="round" stroke-miterlimit="4" fill-rule="nonzero" stroke="none" fill="#000000" stroke-dasharray="none" stroke-width="14px" stroke-opacity="1" fill-opacity="1" stroke-linecap="round" d="M20.75,27.839L9.693,44.424C6.748,48.842,7.941,54.81,12.359,57.755C16.776,60.7,22.745,59.506,25.69,55.089L36.747,38.503C39.692,34.086,38.498,28.118,34.081,25.173C29.663,22.228,23.695,23.421,20.75,27.839Z"/>
  <path fill-opacity="1" stroke-width="0.5px" stroke-dasharray="none" fill-rule="evenodd" stroke="none" stroke-opacity="1" stroke-linecap="round" fill="#000000" stroke-linejoin="round" stroke-miterlimit="4" d="M46.952,10.504C46.952,5.314,42.744,1.106,37.553,1.106C32.363,1.106,28.155,5.314,28.155,10.504C28.155,15.695,32.363,19.903,37.553,19.903C42.744,19.903,46.952,15.695,46.952,10.504ZM46.952,10.504"/>
  <path fill="#000000" stroke-linecap="round" fill-rule="nonzero" stroke="none" stroke-opacity="1" stroke-dasharray="none" stroke-linejoin="round" stroke-miterlimit="4" fill-opacity="1" stroke-width="0.5px" d="M47.295,10.504C47.295,5.124,42.934,0.762,37.553,0.762C32.173,0.762,27.812,5.124,27.812,10.504C27.812,15.884,32.173,20.246,37.553,20.246C42.934,20.246,47.295,15.884,47.295,10.504ZM46.609,10.504C46.609,15.505,42.554,19.559,37.553,19.559C32.552,19.559,28.498,15.505,28.498,10.504C28.498,5.503,32.552,1.449,37.553,1.449C42.554,1.449,46.609,5.503,46.609,10.504Z"/>
</g>
  <g id="Regular-S" transform="matrix(1.0,0.0,0.0,1.0,1409.6661431171367,620.1586595458984)">  <path stroke="none" stroke-opacity="1" stroke-width="9px" fill-rule="nonzero" stroke-miterlimit="4" fill-opacity="1" stroke-linejoin="round" fill="#000000" stroke-linecap="round" stroke-dasharray="none" d="M70.765,24.878L28.748,24.878C26,24.879,23.773,27.106,23.773,29.854C23.773,32.602,26,34.83,28.748,34.83L70.765,34.83C73.513,34.83,75.741,32.602,75.741,29.854C75.741,27.106,73.513,24.878,70.765,24.878Z"/>
  <path fill="#000000" stroke-width="8px" stroke="none" stroke-opacity="1" stroke-linecap="round" fill-opacity="1" stroke-dasharray="none" stroke-linejoin="round" fill-rule="nonzero" stroke-miterlimit="4" d="M40.665,76.641L49.511,51.21C50.314,48.903,49.094,46.382,46.787,45.579C44.48,44.777,41.959,45.997,41.157,48.304L32.311,73.735C31.508,76.042,32.728,78.563,35.035,79.365C37.342,80.168,39.863,78.948,40.665,76.641Z"/>
  <path stroke-opacity="1" fill-rule="nonzero" stroke-dasharray="none" stroke-miterlimit="4" fill="#000000" stroke-linejoin="round" stroke="none" stroke-linecap="round" fill-opacity="1" stroke-width="10px" d="M42.892,45.338L16.355,46.444C13.305,46.571,10.935,49.148,11.062,52.198C11.189,55.249,13.765,57.619,16.816,57.492L43.353,56.386C46.403,56.259,48.773,53.683,48.646,50.632C48.519,47.581,45.943,45.211,42.892,45.338Z"/>
  <path fill-opacity="1" fill="#000000" stroke-linejoin="round" stroke-dasharray="none" stroke-linecap="round" stroke="none" stroke-opacity="1" fill-rule="nonzero" stroke-miterlimit="4" stroke-width="14px" d="M22.308,28.878L11.251,45.463C8.88,49.02,9.841,53.825,13.398,56.197C16.954,58.568,21.76,57.607,24.131,54.05L35.188,37.464C37.559,33.908,36.598,29.102,33.042,26.731C29.485,24.36,24.679,25.321,22.308,28.878Z"/>
  <path stroke="none" fill="#000000" fill-opacity="1" stroke-miterlimit="4" stroke-linejoin="round" stroke-dasharray="none" stroke-linecap="round" stroke-width="0.5px" fill-rule="evenodd" stroke-opacity="1" d="M46.952,10.504C46.952,5.314,42.744,1.106,37.553,1.106C32.363,1.106,28.155,5.314,28.155,10.504C28.155,15.695,32.363,19.903,37.553,19.903C42.744,19.903,46.952,15.695,46.952,10.504ZM46.952,10.504"/>
  <path stroke-linecap="round" fill="#000000" fill-rule="nonzero" stroke-miterlimit="4" stroke-dasharray="none" stroke-width="0.5px" stroke-opacity="1" fill-opacity="1" stroke-linejoin="round" stroke="none" d="M47.228,10.504C47.228,5.161,42.897,0.829,37.553,0.829C32.21,0.829,27.879,5.161,27.879,10.504C27.879,15.847,32.21,20.179,37.553,20.179C42.897,20.179,47.228,15.847,47.228,10.504ZM46.676,10.504C46.676,15.542,42.591,19.626,37.553,19.626C32.515,19.626,28.431,15.542,28.431,10.504C28.431,5.466,32.515,1.382,37.553,1.382C42.591,1.382,46.676,5.466,46.676,10.504Z"/>
</g>
  <g id="Light-S" transform="matrix(1.0,0.0,0.0,1.0,1112.956143117137,620.1586595458984)">  <path stroke-dasharray="none" stroke-width="9px" stroke-opacity="1" fill-rule="nonzero" stroke-linejoin="round" stroke="none" stroke-linecap="round" fill="#000000" fill-opacity="1" stroke-miterlimit="4" d="M70.765,25.708L28.748,25.708C26.458,25.708,24.602,27.564,24.602,29.854C24.602,32.144,26.458,34.001,28.748,34.001L70.765,34C73.055,34,74.911,32.144,74.911,29.854C74.911,27.564,73.055,25.708,70.765,25.708Z"/>
  <path stroke-linejoin="round" stroke-miterlimit="4" stroke-opacity="1" stroke-width="8px" fill-opacity="1" fill-rule="nonzero" fill="#000000" stroke-dasharray="none" stroke="none" stroke-linecap="round" d="M39.969,76.399L48.815,50.968C49.484,49.045,48.467,46.944,46.545,46.276C44.622,45.607,42.522,46.623,41.853,48.546L33.007,73.977C32.338,75.899,33.355,78,35.277,78.669C37.2,79.338,39.3,78.321,39.969,76.399Z"/>
  <path stroke-miterlimit="4" fill="#000000" stroke-opacity="1" stroke-linecap="round" stroke-linejoin="round" fill-opacity="1" fill-rule="nonzero" stroke-dasharray="none" stroke="none" stroke-width="10px" d="M42.931,46.259L16.394,47.365C13.851,47.471,11.877,49.618,11.982,52.16C12.088,54.702,14.235,56.677,16.777,56.571L43.314,55.465C45.856,55.359,47.831,53.213,47.725,50.67C47.62,48.128,45.473,46.153,42.931,46.259Z"/>
  <path stroke-dasharray="none" fill="#000000" fill-rule="nonzero" stroke="none" stroke-linecap="round" fill-opacity="1" stroke-opacity="1" stroke-linejoin="round" stroke-miterlimit="4" stroke-width="14px" d="M23.382,29.593L12.324,46.179C10.348,49.143,11.149,53.147,14.113,55.123C17.077,57.099,21.082,56.298,23.058,53.334L34.115,36.749C36.091,33.785,35.29,29.78,32.326,27.804C29.362,25.828,25.357,26.629,23.382,29.593Z"/>
  <path fill-opacity="1" stroke-opacity="1" stroke="none" stroke-miterlimit="4" stroke-linecap="round" stroke-linejoin="round" stroke-width="0.5px" stroke-dasharray="none" fill="#000000" fill-rule="evenodd" d="M46.952,10.504C46.952,5.314,42.744,1.106,37.553,1.106C32.363,1.106,28.155,5.314,28.155,10.504C28.155,15.695,32.363,19.903,37.553,19.903C42.744,19.903,46.952,15.695,46.952,10.504ZM46.952,10.504"/>
  <path fill="#000000" fill-opacity="1" stroke-opacity="1" stroke-width="0.5px" stroke-linecap="round" stroke="none" fill-rule="nonzero" stroke-dasharray="none" stroke-miterlimit="4" stroke-linejoin="round" d="M47.182,10.504C47.182,5.186,42.871,0.875,37.553,0.875C32.236,0.875,27.925,5.186,27.925,10.504C27.925,15.822,32.236,20.133,37.553,20.133C42.871,20.133,47.182,15.822,47.182,10.504ZM46.722,10.504C46.722,15.568,42.617,19.672,37.553,19.672C32.49,19.672,28.385,15.568,28.385,10.504C28.385,5.441,32.49,1.336,37.553,1.336C42.617,1.336,46.722,5.441,46.722,10.504Z"/>
</g>
  <g id="Thin-S" transform="matrix(1.0,0.0,0.0,1.0,816.2461431171369,620.1586595458984)">  <path stroke-linecap="round" stroke-width="9px" stroke-miterlimit="4" fill-rule="nonzero" stroke="none" stroke-opacity="1" stroke-dasharray="none" fill="#000000" stroke-linejoin="round" fill-opacity="1" d="M70.765,26.537L28.748,26.537C26.916,26.537,25.431,28.022,25.431,29.854C25.431,31.686,26.916,33.171,28.748,33.171L70.765,33.171C72.597,33.171,74.082,31.686,74.082,29.854C74.082,28.022,72.597,26.537,70.765,26.537Z"/>
  <path fill-opacity="1" stroke-dasharray="none" stroke="none" stroke-linejoin="round" stroke-miterlimit="4" fill="#000000" stroke-opacity="1" fill-rule="nonzero" stroke-width="8px" stroke-linecap="round" d="M39.273,76.156L48.119,50.725C48.654,49.187,47.841,47.507,46.303,46.972C44.765,46.437,43.084,47.25,42.549,48.788L33.703,74.219C33.168,75.757,33.981,77.438,35.519,77.973C37.057,78.508,38.738,77.694,39.273,76.156Z"/>
  <path fill="#000000" stroke-linejoin="round" stroke="none" stroke-dasharray="none" stroke-linecap="round" stroke-miterlimit="4" stroke-opacity="1" fill-opacity="1" stroke-width="10px" fill-rule="nonzero" d="M42.969,47.18L16.432,48.286C14.398,48.37,12.818,50.088,12.903,52.122C12.988,54.155,14.705,55.735,16.739,55.651L43.276,54.545C45.31,54.46,46.89,52.742,46.805,50.709C46.72,48.675,45.003,47.095,42.969,47.18Z"/>
  <path fill="#000000" stroke-linejoin="round" stroke="none" fill-rule="nonzero" stroke-width="14px" stroke-miterlimit="4" stroke-opacity="1" fill-opacity="1" stroke-dasharray="none" stroke-linecap="round" d="M24.455,30.309L13.398,46.894C11.817,49.265,12.458,52.469,14.829,54.05C17.2,55.631,20.404,54.99,21.984,52.619L33.042,36.033C34.622,33.662,33.982,30.458,31.61,28.878C29.239,27.297,26.036,27.938,24.455,30.309Z"/>
  <path fill-opacity="1" stroke="none" stroke-dasharray="none" stroke-linecap="round" stroke-opacity="1" stroke-width="0.5px" stroke-linejoin="round" fill-rule="evenodd" stroke-miterlimit="4" fill="#000000" d="M46.952,10.504C46.952,5.314,42.744,1.106,37.553,1.106C32.363,1.106,28.155,5.314,28.155,10.504C28.155,15.695,32.363,19.903,37.553,19.903C42.744,19.903,46.952,15.695,46.952,10.504ZM46.952,10.504"/>
  <path stroke-opacity="1" stroke-linecap="round" fill="#000000" stroke="none" stroke-linejoin="round" fill-rule="nonzero" stroke-miterlimit="4" stroke-dasharray="none" fill-opacity="1" stroke-width="0.5px" d="M47.136,10.504C47.136,5.212,42.846,0.921,37.553,0.921C32.261,0.921,27.971,5.212,27.971,10.504C27.971,15.797,32.261,20.087,37.553,20.087C42.846,20.087,47.136,15.797,47.136,10.504ZM46.768,10.504C46.768,15.593,42.642,19.718,37.553,19.718C32.465,19.718,28.339,15.593,28.339,10.504C28.339,5.415,32.465,1.29,37.553,1.29C42.642,1.29,46.768,5.415,46.768,10.504Z"/>
</g>
  <g id="Ultralight-S" transform="matrix(1.0,0.0,0.0,1.0,519.5361431171368,620.1586595458984)">  <path stroke="none" stroke-width="9px" stroke-miterlimit="4" fill="#000000" fill-opacity="1" stroke-opacity="1" stroke-linecap="round" fill-rule="nonzero" stroke-dasharray="none" stroke-linejoin="round" d="M70.765,27.366L28.748,27.366C27.374,27.366,26.26,28.48,26.26,29.854C26.26,31.228,27.374,32.342,28.748,32.342L70.765,32.342C72.139,32.342,73.253,31.228,73.253,29.854C73.253,28.48,72.139,27.366,70.765,27.366Z"/>
  <path stroke-linejoin="round" fill-rule="nonzero" stroke-linecap="round" stroke-miterlimit="4" fill-opacity="1" stroke="none" stroke-width="8px" stroke-dasharray="none" fill="#000000" stroke-opacity="1" d="M38.577,75.914L47.423,50.483C47.824,49.33,47.214,48.069,46.06,47.668C44.907,47.267,43.647,47.877,43.245,49.03L34.399,74.461C33.998,75.615,34.608,76.875,35.761,77.276C36.915,77.678,38.175,77.068,38.577,75.914Z"/>
  <path fill-opacity="1" stroke-linejoin="round" stroke-opacity="1" stroke="none" stroke-linecap="round" fill-rule="nonzero" stroke-miterlimit="4" fill="#000000" stroke-dasharray="none" stroke-width="10px" d="M43.007,48.1L16.47,49.206C14.945,49.27,13.76,50.558,13.824,52.083C13.887,53.608,15.175,54.793,16.701,54.73L43.237,53.624C44.763,53.56,45.948,52.272,45.884,50.747C45.821,49.222,44.533,48.037,43.007,48.1Z"/>
  <path stroke-opacity="1" stroke="none" stroke-width="14px" fill="#000000" fill-opacity="1" stroke-miterlimit="4" stroke-dasharray="none" stroke-linejoin="round" fill-rule="nonzero" stroke-linecap="round" d="M25.528,31.024L14.471,47.61C13.286,49.388,13.766,51.791,15.544,52.977C17.323,54.162,19.726,53.682,20.911,51.903L31.968,35.318C33.154,33.539,32.673,31.137,30.895,29.951C29.117,28.765,26.714,29.246,25.528,31.024Z"/>
  <path stroke-miterlimit="4" fill="#000000" fill-rule="evenodd" fill-opacity="1" stroke-dasharray="none" stroke-linecap="round" stroke-width="0.5px" stroke="none" stroke-linejoin="round" stroke-opacity="1" d="M46.952,10.504C46.952,5.314,42.744,1.106,37.553,1.106C32.363,1.106,28.155,5.314,28.155,10.504C28.155,15.695,32.363,19.903,37.553,19.903C42.744,19.903,46.952,15.695,46.952,10.504ZM46.952,10.504"/>
  <path stroke-linecap="round" stroke-dasharray="none" stroke-linejoin="round" stroke-width="0.5px" fill-rule="nonzero" fill-opacity="1" stroke-miterlimit="4" stroke="none" fill="#000000" stroke-opacity="1" d="M47.09,10.504C47.09,5.237,42.82,0.967,37.553,0.967C32.286,0.967,28.017,5.237,28.017,10.504C28.017,15.771,32.286,20.041,37.553,20.041C42.82,20.041,47.09,15.771,47.09,10.504ZM46.814,10.504C46.814,15.618,42.668,19.764,37.553,19.764C32.439,19.764,28.293,15.618,28.293,10.504C28.293,5.39,32.439,1.244,37.553,1.244C42.668,1.244,46.814,5.39,46.814,10.504Z"/>
</g>
 </g>
</svg>
